SplineFontDB: 3.0
FontName: BiebersFont
FullName: BiebersFont
FamilyName: BiebersFont
Weight: Medium
Copyright: Copyright 2010, Robert Bieber\n
UComments: "2010-1-18: Created." 
Version: 001.000
ItalicAngle: 0
UnderlinePosition: -102.4
UnderlineWidth: 51.2
Ascent: 819
Descent: 205
LayerCount: 2
Layer: 0 0 "Back"  1
Layer: 1 0 "Fore"  0
NeedsXUIDChange: 1
XUID: [1021 279 723430645 12086378]
FSType: 8
OS2Version: 0
OS2_WeightWidthSlopeOnly: 0
OS2_UseTypoMetrics: 1
CreationTime: 1263798988
ModificationTime: 1264037269
PfmFamily: 17
TTFWeight: 500
TTFWidth: 5
LineGap: 92
VLineGap: 0
OS2TypoAscent: 0
OS2TypoAOffset: 1
OS2TypoDescent: 0
OS2TypoDOffset: 1
OS2TypoLinegap: 92
OS2WinAscent: 0
OS2WinAOffset: 1
OS2WinDescent: 0
OS2WinDOffset: 1
HheadAscent: 0
HheadAOffset: 1
HheadDescent: 0
HheadDOffset: 1
OS2Vendor: 'PfEd'
DEI: 91125
LangName: 1033 
Encoding: ISO8859-1
UnicodeInterp: none
NameList: Adobe Glyph List
DisplaySize: -24
AntiAlias: 1
FitToEm: 1
WinInfo: 80 16 4
TeXData: 1 0 0 346030 173015 115343 0 1048576 115343 783286 444596 497025 792723 393216 433062 380633 303038 157286 324010 404750 52429 2506097 1059062 262144
BeginChars: 256 95

StartChar: zero
Encoding: 48 48 0
Width: 880
VWidth: 0
Flags: HW
LayerCount: 2
Fore
SplineSet
685 722 m 16
 647.084 748.131 607.331 761.398 567.489 761.398 c 0
 529.571 761.398 491.572 749.381 455 725 c 8
 365 664 344 586 323 479 c 16
 316.878 447.423 313.767 419.168 313.767 392.329 c 0
 313.767 335.872 327.533 285.678 356 224 c 8
 391 148 428 89 510 74 c 16
 527.141 70.8835 543.865 69.2846 560.052 69.2846 c 0
 626.972 69.2846 684.739 96.6087 725 157 c 0
 781.785 241.799 796.723 315.133 796.723 403.912 c 0
 796.723 432.389 795.186 462.456 793 495 c 8
 786 593 766 667 685 722 c 16
409 759 m 16
 462.256 800.185 512.991 822.209 570.514 822.209 c 0
 594 822.209 618.618 818.538 645 811 c 8
 732 786 781 732 808 645 c 16
 833.086 564.726 848.227 498.126 848.227 430.127 c 0
 848.227 376.146 838.685 321.284 817 258 c 8
 778 143 718 58 599 37 c 16
 583.883 34.348 569.224 33.0674 555.022 33.0674 c 0
 462.119 33.0674 388.779 87.8623 335 172 c 0
 286.653 247.701 271.49 315.308 271.49 390.783 c 0
 271.49 433.953 276.451 479.696 283 531 c 8
 296 632 329 697 409 759 c 16
EndSplineSet
Validated: 1
EndChar

StartChar: C
Encoding: 67 67 1
Width: 766
VWidth: 0
InSpiro: 1
Flags: HW
LayerCount: 2
Fore
SplineSet
651 666 m 0
 622.517 698.565 585.334 722.158 549.157 745.885 c 0
 512.98 769.613 475.74 792.439 435 807 c 0
 402.74 818.53 368.25 824.319 334.069 822.028 c 0
 299.887 819.738 266.337 809.428 236.486 792.618 c 0
 176.786 758.997 133.851 701.146 105 639 c 0
 58.7614 539.4 38.5455 427.481 47.2391 318.016 c 0
 51.5859 263.283 64.5645 208.887 88.9965 159.717 c 0
 113.428 110.548 149.663 66.969 195 36 c 0
 259.075 -7.76847 340.289 -24.753 416.984 -12.9538 c 0
 493.678 -1.15453 567.1 37.9513 615 99 c 0
 632.853 121.753 647.009 147.592 655.043 175.375 c 0
 663.077 203.158 664.914 233.183 657 261 c 0
 652.266 277.64 643.944 293.384 632.02 305.919 c 0
 620.096 318.454 604.493 327.621 587.54 331.068 c 0
 570.586 334.516 552.488 332.077 537.085 324.2 c 0
 521.682 316.323 509.247 303.208 501 288 c 0
 489.528 266.846 486.156 242.406 482.696 218.592 c 0
 479.236 194.777 474.683 170.451 462 150 c 0
 448.587 128.372 426.034 112.581 401.029 107.839 c 0
 376.025 103.098 349.83 108.754 327 120 c 0
 292.067 137.208 263.913 165.91 240.828 197.271 c 0
 217.744 228.632 199.439 263.451 186 300 c 0
 165.855 354.787 157.006 413.801 161.051 472.035 c 0
 165.097 530.268 181.88 588.636 216 636 c 0
 230.864 656.633 249.128 674.964 270.489 688.76 c 0
 291.851 702.556 316.357 711.665 341.665 714.146 c 0
 366.973 716.627 392.877 712.356 416.141 702.088 c 0
 439.405 691.819 459.778 675.71 477 657 c 0
 503.043 628.706 521.62 594.001 549 567 c 0
 564.8 551.419 584.438 538.682 606.42 535.657 c 0
 617.412 534.144 628.791 535.13 639.213 538.935 c 0
 649.636 542.739 659.023 549.373 666 558 c 0
 672.23 565.703 676.518 574.933 678.589 584.621 c 0
 680.659 594.31 680.537 604.419 678.624 614.139 c 0
 674.799 633.581 664.045 651.086 651 666 c 0
  Spiro
    651 666 o
    435 807 o
    105 639 o
    195 36 o
    615 99 o
    657 261 o
    501 288 o
    462 150 o
    327 120 o
    186 300 o
    216 636 o
    477 657 o
    549 567 o
    666 558 o
    0 0 z
  EndSpiro
EndSplineSet
Validated: 41
EndChar

StartChar: one
Encoding: 49 49 2
Width: 571
VWidth: 0
Flags: HW
LayerCount: 2
Fore
SplineSet
298 104 m 25
 298 728 l 25
 178 636 l 25
 178 707 l 25
 215 783 l 25
 399 805 l 25
 390 108 l 25
 473 111 l 25
 482 37 l 25
 209 28 l 25
 206 111 l 25
 298 104 l 25
EndSplineSet
Validated: 1
EndChar

StartChar: two
Encoding: 50 50 3
Width: 841
VWidth: 0
Flags: HW
LayerCount: 2
Fore
SplineSet
166 519 m 24
 123 556 135 615 163 664 c 24
 207 740 250 788 335 811 c 24
 424 835 489 819 568 771 c 24
 657 717 718 667 737 565 c 24
 758 453 732 372 660 283 c 24
 603 213 519 250 442 203 c 24
 380 165 241 95 310 71 c 24
 465 18 566 123 728 104 c 24
 760 100 773 22 740 22 c 0
 543 22 473 12 249 12 c 0
 183 12 187 138 237 181 c 24
 351 278 477 223 599 310 c 24
 660 353 675 413 670 488 c 24
 664 573 633 623 574 685 c 24
 531 730 489 743 427 743 c 24
 362 743 323 723 270 685 c 24
 241 664 252 632 233 602 c 24
 211 567 197 492 166 519 c 24
EndSplineSet
Validated: 33
EndChar

StartChar: three
Encoding: 51 51 4
Width: 655
VWidth: 0
Flags: HW
LayerCount: 2
Fore
SplineSet
203 633 m 24
 217 700 198 759 252 802 c 24
 305 844 360 827 424 808 c 24
 492 788 550 773 574 707 c 24
 597 645 560 598 519 547 c 24
 498 520 460 552 433 531 c 24
 406 510 388 485 396 452 c 24
 408 407 450 401 476 362 c 24
 506 317 540 294 541 240 c 24
 542 182 520 145 479 104 c 24
 437 62 400 43 341 40 c 24
 253 35 169 13 120 86 c 24
 77 150 133 215 184 273 c 24
 206 298 217 227 215 194 c 24
 214 172 176 173 178 151 c 24
 180 128 199 116 221 111 c 24
 269 101 299 105 347 114 c 24
 395 123 434 119 464 157 c 24
 491 192 481 227 470 270 c 24
 462 303 441 316 418 341 c 24
 394 367 360 368 350 402 c 24
 334 456 337 494 356 547 c 24
 367 579 395 583 421 605 c 24
 439 620 458 621 470 642 c 24
 481 662 484 680 473 700 c 24
 461 723 442 729 418 740 c 24
 384 755 363 770 326 765 c 24
 292 761 277 742 252 719 c 24
 242 710 242 701 240 688 c 24
 237 669 246 657 240 639 c 24
 235 623 229 608 212 605 c 24
 201 603 201 622 203 633 c 24
EndSplineSet
Validated: 33
EndChar

StartChar: four
Encoding: 52 52 5
Width: 802
VWidth: 0
Flags: HW
LayerCount: 2
Fore
SplineSet
513 406 m 25
 501 728 l 25
 452 728 l 25
 276 384 l 25
 513 406 l 25
356 304 m 25
 197 304 l 25
 197 402 l 25
 442 826 l 25
 565 820 l 25
 593 433 l 25
 713 433 l 25
 703 326 l 25
 565 313 l 25
 581 15 l 25
 470 12 l 25
 473 307 l 25
 356 304 l 25
EndSplineSet
Validated: 1
EndChar

StartChar: five
Encoding: 53 53 6
Width: 862
VWidth: 0
Flags: HW
LayerCount: 2
Fore
SplineSet
710 817 m 0
 753 817 747 753 719 753 c 0
 579 753 479 756 338 759 c 0
 249 761 288 585 359 531 c 24
 477 442 612 548 731 461 c 24
 799 411 778 325 750 246 c 24
 723 168 681 117 602 92 c 24
 490 57 412 66 301 104 c 24
 241 125 213 168 197 230 c 24
 190 258 231 283 258 273 c 24
 293 260 280 219 304 190 c 24
 321 169 333 154 359 151 c 24
 456 138 517 123 611 151 c 24
 658 165 678 201 688 249 c 24
 701 310 706 360 667 409 c 24
 628 458 578 453 516 464 c 24
 456 475 419 455 359 464 c 24
 332 468 312 474 298 498 c 24
 269 549 267 584 258 642 c 24
 249 695 249 726 252 780 c 24
 253 797 252 813 267 820 c 24
 295 833 316 822 347 823 c 24
 389 824 413 824 455 823 c 24
 554 821 556 817 710 817 c 0
EndSplineSet
Validated: 33
EndChar

StartChar: six
Encoding: 54 54 7
Width: 793
VWidth: 0
Flags: HW
LayerCount: 2
Fore
SplineSet
347 111 m 24
 379 77 417 85 464 86 c 24
 500 87 523 94 550 117 c 24
 594 155 625 181 639 237 c 24
 658 313 671 370 630 436 c 24
 604 478 553 456 504 452 c 24
 439 447 383 465 341 415 c 24
 296 360 322 304 323 233 c 24
 324 184 313 146 347 111 c 24
673 642 m 24
 657 632 632 631 624 648 c 24
 607 685 648 723 621 753 c 24
 590 788 550 786 504 780 c 24
 450 772 411 763 378 719 c 24
 348 679 367 642 362 593 c 24
 357 546 294 473 353 473 c 0
 442 473 486 496 571 495 c 24
 621 495 668 511 697 470 c 24
 730 423 702 380 694 323 c 24
 685 255 693 208 654 151 c 24
 611 90 572 53 498 40 c 24
 419 26 352 27 298 86 c 24
 247 141 282 201 280 276 c 24
 277 392 276 458 286 574 c 24
 293 649 285 700 323 765 c 24
 346 804 382 808 427 817 c 24
 483 829 517 827 574 817 c 24
 623 808 665 812 694 771 c 24
 715 741 679 715 673 679 c 24
 671 665 685 650 673 642 c 24
EndSplineSet
Validated: 33
EndChar

StartChar: seven
Encoding: 55 55 8
Width: 799
VWidth: 0
Flags: HW
LayerCount: 2
Fore
SplineSet
221 740 m 25
 221 814 l 25
 667 814 l 25
 670 737 l 25
 488 0 l 25
 384 0 l 25
 565 746 l 25
 221 740 l 25
EndSplineSet
Validated: 1
EndChar

StartChar: eight
Encoding: 56 56 9
Width: 799
VWidth: 0
Flags: HW
LayerCount: 2
Fore
SplineSet
627 261 m 0
 591.959 291.035 591.094 350.171 543 381 c 24
 492.774 413.195 452.319 417.355 393 411 c 24
 347.689 406.146 307.924 396.311 291 354 c 24
 260.137 276.841 249.689 216.228 285 141 c 24
 312.379 82.6709 364.95 67.0381 429 60 c 24
 482.775 54.0908 511.297 83.6963 558 111 c 24
 588.72 128.959 609.129 141.672 624 174 c 24
 638.188 204.844 648 243 627 261 c 0
306 642 m 24
 316.062 606.396 349.099 600.28 384 588 c 24
 414.923 577.12 436.543 575.779 468 585 c 24
 507.28 596.514 539.995 602.24 558 639 c 24
 574.25 672.178 567.146 706.942 540 732 c 24
 511.306 758.487 480.032 748.201 441 747 c 24
 402.692 745.821 375.253 749.529 345 726 c 24
 316.489 703.825 296.178 676.758 306 642 c 24
324 531 m 24
 283.937 585.971 198.374 577.278 192 645 c 24
 185.51 713.963 235.077 761.855 300 786 c 24
 393.238 820.676 458.004 802.08 555 780 c 24
 607.527 768.043 657.092 754.538 669 702 c 24
 682.788 641.17 642.465 605.604 606 555 c 24
 582.854 522.88 541.542 532.431 522 498 c 24
 510.847 478.349 528.657 461.461 543 444 c 24
 610.249 362.131 693.473 345.813 729 246 c 24
 750.858 184.589 718.121 132.851 669 90 c 24
 598.599 28.5859 540.322 4.35547 447 0 c 24
 354.198 -4.33105 278.91 -2.00488 219 69 c 24
 163.793 134.431 182.797 205.058 204 288 c 24
 224.737 369.118 283.928 392.929 321 468 c 24
 331.892 490.055 338.488 511.121 324 531 c 24
EndSplineSet
Validated: 33
EndChar

StartChar: nine
Encoding: 57 57 10
Width: 727
VWidth: 0
Flags: HW
LayerCount: 2
Fore
SplineSet
477 759 m 24
 434.588 762.085 408.06 760.811 369 744 c 24
 313.261 720.011 271.221 709.035 240 657 c 24
 215.312 615.854 219.281 575.712 243 534 c 24
 260.195 503.761 292.563 508.92 327 504 c 24
 367.555 498.206 393.662 492.561 432 507 c 24
 487.27 527.815 533.615 537.21 558 591 c 24
 581.031 641.805 558.226 681.754 534 732 c 24
 523.317 754.157 501.533 757.216 477 759 c 24
471 465 m 24
 434.652 458.392 414.943 447 378 447 c 24
 341.057 447 318.489 449.402 285 465 c 24
 231.463 489.935 180.934 494.165 159 549 c 24
 139.763 597.094 168.143 634.956 201 675 c 24
 246.726 730.728 283.221 758.459 351 783 c 24
 423.906 809.397 480.207 836.772 549 801 c 24
 618.789 764.71 647.154 705.566 651 627 c 24
 656.102 522.778 612.684 467.218 570 372 c 24
 536.01 296.176 506.892 257.687 456 192 c 24
 405.813 127.225 348 84 312 39 c 0
 282.646 2.30762 283.451 21.1086 240 39 c 0
 189 60 247.394 96.3733 267 126 c 24
 301.27 177.786 337.138 193.779 375 243 c 24
 419.32 300.616 439.965 336.451 477 399 c 24
 492.737 425.579 512.797 440.238 510 471 c 24
 508.606 486.326 486.141 467.753 471 465 c 24
EndSplineSet
Validated: 33
EndChar

StartChar: colon
Encoding: 58 58 11
Width: 631
VWidth: 0
Flags: HW
LayerCount: 2
Fore
SplineSet
363 96 m 24
 325.632 92.7028 287.032 70.2828 267 102 c 24
 243.96 138.48 267.232 173.989 291 210 c 24
 309.467 237.979 333.395 259.797 366 252 c 24
 403.152 243.115 428.187 215.192 429 177 c 24
 429.74 142.222 390.974 137.968 369 111 c 24
 365.021 106.115 369.276 96.5537 363 96 c 24
378 606 m 24
 350.57 612.858 318.316 608.44 312 636 c 24
 301.661 681.116 307.536 722.82 345 750 c 24
 382.893 777.491 427.548 775.089 465 747 c 24
 489.622 728.533 462.542 698.261 453 669 c 24
 444.721 643.61 440.449 626.177 420 609 c 24
 407.426 598.438 393.932 602.018 378 606 c 24
EndSplineSet
Validated: 33
EndChar

StartChar: semicolon
Encoding: 59 59 12
Width: 664
VWidth: 0
Flags: HW
LayerCount: 2
Fore
SplineSet
351 231 m 24
 330.618 184.413 314.178 159.835 300 111 c 24
 292.816 86.2549 278.78 63.2199 297 45 c 24
 319.581 22.4189 348.122 21.7253 378 33 c 24
 416.732 47.6162 433.668 70.1409 456 105 c 24
 482.962 147.087 501.862 175.025 501 225 c 24
 500.515 253.173 480.534 273.014 453 279 c 24
 417.503 286.717 395.869 270.468 363 255 c 24
 353.531 250.544 355.194 240.588 351 231 c 24
447 735 m 24
 406.79 767.168 361.396 754.339 315 732 c 24
 286.615 718.333 276.139 687.231 285 657 c 24
 299.031 609.128 317.603 570.099 366 558 c 24
 408.667 547.333 446.699 572.008 465 612 c 24
 485.174 656.084 484.857 704.714 447 735 c 24
EndSplineSet
Validated: 41
EndChar

StartChar: less
Encoding: 60 60 13
Width: 742
VWidth: 0
Flags: HW
LayerCount: 2
Fore
SplineSet
150 369 m 24
 127.071 395.576 123 426 150 459 c 0
 267.58 602.709 328.125 690.531 465 816 c 0
 501 849 548.462 814.153 543 807 c 0
 417 642 273 465 243 426 c 0
 219.151 394.996 476.747 231.414 588 75 c 24
 607.431 47.6816 573.835 -18.6837 546 0 c 24
 370.728 117.648 287.895 209.167 150 369 c 24
EndSplineSet
Validated: 33
EndChar

StartChar: greater
Encoding: 62 62 14
Width: 820
VWidth: 0
Flags: HW
LayerCount: 2
Fore
SplineSet
711 369 m 24
 733.929 395.576 738 426 711 459 c 0
 593.42 602.709 532.875 690.531 396 816 c 0
 360 849 312.538 814.153 318 807 c 0
 444 642 588 465 618 426 c 0
 641.849 394.996 384.253 231.414 273 75 c 24
 253.569 47.6816 287.165 -18.6836 315 0 c 24
 490.272 117.648 573.104 209.167 711 369 c 24
EndSplineSet
Validated: 41
EndChar

StartChar: equal
Encoding: 61 61 15
Width: 811
VWidth: 0
Flags: HW
LayerCount: 2
Fore
SplineSet
225 201 m 25
 222 309 l 25
 663 321 l 25
 660 198 l 25
 225 201 l 25
213 441 m 25
 210 555 l 25
 690 549 l 25
 690 426 l 25
 213 441 l 25
EndSplineSet
Validated: 1
EndChar

StartChar: question
Encoding: 63 63 16
Width: 811
VWidth: 0
InSpiro: 1
Flags: HW
LayerCount: 2
Fore
SplineSet
429 54 m 0
 428.192 65.1787 431.566 76.4967 437.779 85.8244 c 0
 443.993 95.1521 452.88 102.526 462.75 107.838 c 0
 482.488 118.462 505.668 121.937 528 120 c 0
 543.81 118.629 559.901 113.844 571.631 103.155 c 0
 577.495 97.8102 582.101 91.0224 584.521 83.4656 c 0
 586.941 75.9089 587.11 67.6491 585 60 c 0
 581.947 48.9322 574.251 39.5427 564.949 32.8129 c 0
 555.647 26.0831 544.894 21.6236 534 18 c 0
 521.351 13.7925 508.332 10.4973 495.061 9.23612 c 0
 481.79 7.97492 467.973 9.13825 456 15 c 0
 448.56 18.6425 441.968 24.0793 437.216 30.8646 c 0
 432.464 37.6499 429.598 45.7377 429 54 c 0
  Spiro
    429 54 o
    528 120 o
    585 60 o
    534 18 o
    456 15 o
    0 0 z
  EndSpiro
366 606 m 0
 354.482 598.941 340.528 595.786 327.16 597.735 c 0
 313.791 599.683 301.308 606.648 292.22 616.644 c 0
 283.132 626.64 277.409 639.452 274.966 652.739 c 0
 272.524 666.026 273.223 679.779 276 693 c 0
 280.533 714.583 290.35 734.886 303.257 752.768 c 0
 316.165 770.649 332.399 786.152 351 798 c 0
 384.115 819.092 424.461 827.512 463.627 824.78 c 0
 502.794 822.048 540.775 809.34 576 792 c 0
 618.781 770.94 658.781 743.072 689.725 706.792 c 0
 705.197 688.652 718.193 668.262 726.862 646.052 c 0
 735.531 623.842 739.767 599.776 738 576 c 0
 736.324 553.452 729.124 531.305 716.972 512.238 c 0
 704.821 493.17 687.839 477.503 669 465 c 0
 651.796 453.583 633.112 444.611 615.208 434.325 c 0
 597.305 424.04 580.053 411.998 567 396 c 0
 551.282 376.736 542.866 351.863 543 327 c 0
 543.115 305.714 548.891 284.94 553.458 264.15 c 0
 558.024 243.359 560.903 221.451 555 201 c 0
 551.037 187.272 543.09 174.604 531.929 165.682 c 0
 520.768 156.761 506.566 151.76 492.278 151.585 c 0
 477.991 151.409 463.792 155.967 451.851 163.813 c 0
 439.91 171.659 430.203 182.66 423 195 c 0
 409.601 217.953 404.671 244.955 403.45 271.504 c 0
 402.228 298.054 404.263 324.686 408 351 c 0
 410.915 371.523 415.081 391.954 422.114 411.454 c 0
 429.146 430.954 439.306 449.438 453 465 c 0
 464.095 477.608 477.398 488.182 491.794 496.832 c 0
 506.191 505.482 521.633 512.222 537 519 c 0
 549.993 524.731 562.993 530.595 574.976 538.216 c 0
 586.959 545.837 597.885 555.346 606 567 c 0
 612.9 576.909 617.693 588.283 619.9 600.154 c 0
 622.106 612.025 621.751 624.323 619.273 636.141 c 0
 614.318 659.776 601.338 681.217 585 699 c 0
 574.802 710.1 563.147 719.919 550.175 727.598 c 0
 537.204 735.276 522.808 740.748 507.843 742.561 c 0
 492.879 744.374 477.401 742.376 463.606 736.3 c 0
 449.811 730.225 437.953 720.127 429 708 c 0
 416.961 691.695 410.326 672.169 402.248 653.58 c 0
 398.21 644.285 393.679 635.149 387.798 626.895 c 0
 381.918 618.642 374.641 611.295 366 606 c 0
  Spiro
    366 606 o
    276 693 o
    351 798 o
    576 792 o
    738 576 o
    669 465 o
    567 396 o
    543 327 o
    555 201 o
    423 195 o
    408 351 o
    453 465 o
    537 519 o
    606 567 o
    585 699 o
    429 708 o
    0 0 z
  EndSpiro
EndSplineSet
Validated: 33
EndChar

StartChar: at
Encoding: 64 64 17
Width: 919
VWidth: 0
InSpiro: 1
Flags: HW
LayerCount: 2
Fore
SplineSet
432 498 m 0
 421.596 496.89 412.005 490.839 405.813 482.404 c 0
 399.622 473.97 396.698 463.553 395.284 453.186 c 0
 393.869 442.819 393.776 432.299 392.203 421.955 c 0
 390.63 411.61 387.392 401.284 381 393 c 0
 377.477 388.434 373.046 384.549 367.974 381.802 c 0
 362.902 379.056 357.205 377.463 351.442 377.224 c 0
 339.916 376.747 328.434 381.933 320.642 390.44 c 0
 312.85 398.946 308.689 410.373 307.705 421.867 c 0
 306.722 433.36 308.686 444.951 312 456 c 0
 318.927 479.098 330.799 500.429 343.708 520.797 c 0
 356.618 541.164 371.399 560.655 390 576 c 0
 402.072 585.959 415.794 594.035 430.665 598.908 c 0
 445.536 603.781 461.535 605.393 477 603 c 0
 489.872 601.008 502.321 596.233 513.143 588.984 c 0
 523.965 581.735 533.083 572.037 540 561 c 0
 551.83 542.124 557.047 519.923 561 498 c 0
 568.142 458.393 575.859 418.896 586.154 379.99 c 0
 591.301 360.537 596.316 340.983 598.886 321.026 c 0
 601.457 301.068 601.426 280.63 597 261 c 0
 590.576 232.51 574.483 206.409 552.262 187.458 c 0
 530.042 168.506 502.484 156.447 474 150 c 0
 428.424 139.684 379.839 142.823 336 159 c 0
 296.88 173.436 262.146 198.516 233.794 229.093 c 0
 205.442 259.669 182.769 295.277 165 333 c 0
 148.71 367.583 136.548 404.407 132.401 442.409 c 0
 128.255 480.411 132.964 519.443 147 555 c 0
 166.88 605.363 202.97 647.498 240 687 c 0
 276.418 725.85 316.481 763.417 366 783 c 0
 392.389 793.436 420.725 798.465 449.08 799.595 c 0
 477.435 800.725 505.824 798.374 534 795 c 0
 590.63 788.219 648.087 778.706 699 753 c 0
 741.173 731.707 776.962 697.984 800.428 656.98 c 0
 823.893 615.976 835.482 569.027 840 522 c 0
 850.464 413.083 835.346 301.888 801 198 c 0
 790.49 166.209 777.3 135.113 759.168 106.963 c 0
 741.036 78.8131 717.4 53.0367 687 39 c 0
 671.377 31.786 653.97 27.9783 636.842 29.6416 c 0
 619.714 31.3049 603.044 38.7083 591 51 c 0
 580.942 61.2656 574.271 74.7432 571.964 88.9286 c 0
 569.657 103.114 571.643 117.856 576.834 131.258 c 0
 587.217 158.061 609.462 178.503 633 195 c 0
 665.01 217.435 700.262 235.484 729.386 261.555 c 0
 758.511 287.627 781.149 321.664 790.048 359.727 c 0
 798.947 397.789 793.995 438.545 778.391 474.384 c 0
 762.786 510.223 737.314 541.142 708 567 c 0
 659.033 610.195 600.724 641.995 540 666 c 0
 491.372 685.223 439.023 698.28 387 693 c 0
 352.63 689.512 319.04 677.791 290.393 658.482 c 0
 261.746 639.174 238.159 612.535 222 582 c 0
 203.111 546.305 194.408 505.339 196.832 465.027 c 0
 199.255 424.715 212.916 385.444 234 351 c 0
 266.739 297.516 312.365 251.491 366 219 c 0
 383.168 208.6 401.882 200.243 421.727 197.23 c 0
 441.573 194.218 462.567 197.049 480 207 c 0
 500.051 218.446 514.207 239.024 519.463 261.506 c 0
 524.72 283.988 521.735 307.635 516 330 c 0
 510.453 351.63 502.845 372.681 496.981 394.228 c 0
 491.116 415.774 487.708 438.042 480 459 c 0
 476.152 469.463 470.778 479.627 462.569 487.169 c 0
 458.464 490.939 453.677 493.999 448.444 495.917 c 0
 443.211 497.836 437.542 498.592 432 498 c 0
  Spiro
    432 498 o
    381 393 o
    312 456 o
    390 576 o
    477 603 o
    540 561 o
    561 498 o
    597 261 o
    474 150 o
    336 159 o
    165 333 o
    147 555 o
    240 687 o
    366 783 o
    534 795 o
    699 753 o
    840 522 o
    801 198 o
    687 39 o
    591 51 o
    633 195 o
    708 567 o
    540 666 o
    387 693 o
    222 582 o
    234 351 o
    366 219 o
    480 207 o
    516 330 o
    480 459 o
    0 0 z
  EndSpiro
EndSplineSet
Validated: 33
EndChar

StartChar: A
Encoding: 65 65 18
Width: 799
VWidth: 0
Flags: HW
LayerCount: 2
Fore
SplineSet
492 420 m 25
 468 678 l 25
 399 681 l 25
 357 429 l 25
 492 420 l 25
150 24 m 25
 384 816 l 25
 486 816 l 25
 699 30 l 25
 603 24 l 25
 507 333 l 25
 345 336 l 25
 237 24 l 25
 150 24 l 25
EndSplineSet
Validated: 1
EndChar

StartChar: B
Encoding: 66 66 19
Width: 835
VWidth: 0
Flags: HW
LayerCount: 2
Fore
SplineSet
606 753 m 24
 528.125 770.305 480.253 783.503 402 768 c 24
 349.156 757.531 299.343 742.663 288 690 c 24
 276.719 637.623 320.142 608.804 360 573 c 24
 392.811 543.526 420.945 528.902 465 531 c 24
 526.007 533.905 573.571 537.529 612 585 c 24
 645.16 625.962 619.881 667.331 618 720 c 24
 617.512 733.686 619.368 750.029 606 753 c 24
345 162 m 24
 442.022 94.3783 550.512 107.051 648 174 c 24
 701.984 211.073 647.727 295.554 594 333 c 24
 514.748 388.236 430.631 435.686 351 381 c 24
 280.567 332.631 274.903 210.855 345 162 c 24
237 810 m 25
 404.31 792.45 524.71 856.31 666 765 c 24
 744.711 714.133 735.999 598.614 678 525 c 24
 617.053 447.644 516 501 432 468 c 0
 348.482 435.189 585.821 448.452 645 381 c 24
 706.793 310.569 769.103 223.504 711 150 c 24
 632.155 50.2559 521.607 85.703 396 66 c 24
 340.326 57.2666 263.778 22.8897 252 78 c 24
 192.325 357.234 242.85 524.52 237 810 c 25
EndSplineSet
Validated: 33
EndChar

StartChar: D
Encoding: 68 68 20
Width: 894
VWidth: 0
Flags: HW
LayerCount: 2
Fore
SplineSet
346.05 127.2 m 0
 346.05 125.547 349.805 124.794 356.284 124.794 c 0
 382.719 124.794 454.495 137.333 501.45 152.4 c 8
 554.116 169.301 592.178 174.895 627.45 217.5 c 16
 678.473 279.131 713.599 324.895 713.599 403.447 c 0
 713.599 405.149 713.583 406.866 713.55 408.6 c 8
 711.57 512.012 704.817 598.59 619.05 656.4 c 16
 582.164 681.262 529.217 689.287 478.909 689.287 c 0
 403.19 689.287 333.45 671.108 333.45 664.8 c 0
 333.45 455.078 346.05 336.922 346.05 127.2 c 0
270 12 m 0
 270 311.603 252 480.398 252 780 c 0
 252 789.012 351.629 814.981 459.798 814.981 c 0
 531.667 814.981 607.306 803.517 660 768 c 8
 782.524 685.414 792.173 561.731 795 414 c 16
 795.047 411.524 795.071 409.072 795.071 406.641 c 0
 795.071 294.422 744.89 229.045 672 141 c 8
 621.611 80.1348 567.237 72.1433 492 48 c 16
 424.922 26.4751 322.385 8.56238 284.619 8.56238 c 0
 275.365 8.56238 270 9.6381 270 12 c 0
EndSplineSet
Validated: 1
EndChar

StartChar: E
Encoding: 69 69 21
Width: 781
VWidth: 0
Flags: HW
LayerCount: 2
Fore
SplineSet
219 0 m 25
 258 822 l 25
 639 801 l 25
 639 720 l 25
 357 735 l 25
 351 501 l 25
 588 498 l 25
 579 390 l 25
 339 396 l 17
 315 99 l 9
 609 93 l 25
 606 0 l 25
 219 0 l 25
EndSplineSet
Validated: 1
EndChar

StartChar: F
Encoding: 70 70 22
Width: 745
VWidth: 0
Flags: HW
LayerCount: 2
Fore
SplineSet
204 15 m 25
 246 807 l 25
 612 819 l 25
 612 732 l 25
 339 729 l 25
 330 534 l 25
 606 528 l 25
 612 444 l 25
 327 441 l 25
 318 0 l 25
 204 15 l 25
EndSplineSet
Validated: 1
EndChar

StartChar: G
Encoding: 71 71 23
Width: 901
VWidth: 0
Flags: HW
LayerCount: 2
Fore
SplineSet
663 381 m 25
 513 375 l 25
 513 453 l 25
 771 456 l 25
 771 138 l 17
 660 60 539.113 -26.4854 399 30 c 24
 256.445 87.4697 218.683 216.695 198 369 c 24
 176.844 524.786 175.792 662.62 300 759 c 24
 438.175 866.218 573.717 818.686 747 795 c 24
 784.76 789.839 729 699 717 702 c 0
 614.844 727.539 543.052 745.154 447 702 c 24
 363.318 664.404 315.904 606.826 303 516 c 24
 282.76 373.54 283.55 268.771 369 153 c 24
 418.453 85.998 499.13 129.795 582 138 c 24
 621.052 141.866 654.002 148.128 672 183 c 24
 697.243 231.909 680.499 269.017 678 324 c 24
 676.956 346.963 668.85 358.77 663 381 c 25
EndSplineSet
Validated: 33
EndChar

StartChar: H
Encoding: 72 72 24
Width: 847
VWidth: 0
Flags: HW
LayerCount: 2
Fore
SplineSet
213 0 m 25
 213 807 l 25
 357 804 l 25
 357 510 l 25
 543 507 l 25
 546 807 l 25
 693 807 l 25
 690 0 l 25
 564 0 l 25
 555 351 l 25
 369 357 l 25
 360 0 l 25
 213 0 l 25
EndSplineSet
Validated: 1
EndChar

StartChar: I
Encoding: 73 73 25
Width: 739
VWidth: 0
Flags: HW
LayerCount: 2
Fore
SplineSet
207 723 m 25
 213 822 l 25
 618 819 l 25
 612 714 l 25
 477 708 l 25
 480 99 l 25
 612 93 l 25
 606 0 l 25
 225 0 l 25
 234 99 l 25
 360 99 l 25
 351 720 l 25
 207 723 l 25
EndSplineSet
Validated: 1
EndChar

StartChar: J
Encoding: 74 74 26
Width: 865
VWidth: 0
Flags: HW
LayerCount: 2
Fore
SplineSet
528 801 m 0
 567 816 663 828 666 807 c 0
 692.218 623.471 729.605 516.326 702 333 c 24
 682.288 202.095 669.06 85.7696 549 30 c 24
 434.435 -23.2178 326.323 27.6768 237 117 c 24
 170.686 183.314 184.801 270.91 222 357 c 24
 240.569 399.975 323.363 402.945 342 360 c 24
 368.368 299.238 267.825 260.05 291 198 c 24
 313.957 136.533 371.13 95.9717 435 111 c 24
 521.173 131.276 564.829 187.525 597 270 c 24
 634.418 365.927 606.229 431.222 600 534 c 24
 596.821 586.449 586.681 615.267 573 666 c 24
 558.551 719.584 476.201 781.077 528 801 c 0
EndSplineSet
Validated: 33
EndChar

StartChar: K
Encoding: 75 75 27
Width: 736
VWidth: 0
Flags: HW
LayerCount: 2
Fore
SplineSet
219 0 m 25
 216 807 l 25
 312 816 l 25
 324 495 l 25
 384 597 l 25
 474 816 l 25
 570 816 l 25
 438 396 l 25
 618 0 l 25
 504 0 l 25
 336 375 l 25
 342 0 l 25
 219 0 l 25
EndSplineSet
Validated: 1
EndChar

StartChar: L
Encoding: 76 76 28
Width: 781
VWidth: 0
Flags: HW
LayerCount: 2
Fore
SplineSet
222 822 m 25
 363 825 l 25
 360 102 l 25
 573 102 l 25
 630 174 l 25
 630 0 l 25
 237 0 l 25
 222 822 l 25
EndSplineSet
Validated: 1
EndChar

StartChar: M
Encoding: 77 77 29
Width: 832
VWidth: 0
Flags: HW
LayerCount: 2
Fore
SplineSet
120 0 m 25
 231 822 l 25
 315 819 l 25
 396 291 l 25
 507 816 l 25
 621 816 l 25
 720 0 l 25
 639 0 l 25
 561 723 l 25
 396 156 l 25
 279 699 l 25
 195 0 l 25
 120 0 l 25
EndSplineSet
Validated: 1
EndChar

StartChar: N
Encoding: 78 78 30
Width: 721
VWidth: 0
Flags: HW
LayerCount: 2
Fore
SplineSet
135 0 m 25
 225 816 l 25
 315 816 l 25
 414 117 l 25
 522 819 l 25
 606 816 l 25
 483 0 l 25
 372 0 l 25
 276 618 l 25
 246 0 l 25
 135 0 l 25
EndSplineSet
Validated: 1
EndChar

StartChar: O
Encoding: 79 79 31
Width: 865
VWidth: 0
Flags: HW
LayerCount: 2
Fore
SplineSet
651 438 m 0
 651.281 449.664 651.514 461.364 651.514 473.06 c 0
 651.514 504.001 649.889 534.914 643.256 565.06 c 0
 638.686 585.831 631.574 606.142 620.973 624.579 c 0
 610.373 643.016 596.216 659.513 579 672 c 0
 556.646 688.214 529.117 697.198 501.529 697.198 c 0
 498.187 697.198 494.844 697.066 491.509 696.799 c 0
 460.647 694.33 431.139 680.57 408 660 c 0
 380.409 635.472 361.864 602.085 349.868 567.171 c 0
 337.872 532.257 331.687 495.618 327 459 c 0
 321.487 415.931 317.662 372.588 317.323 329.169 c 0
 317.31 327.411 317.302 325.652 317.302 323.892 c 0
 317.302 282.183 321.291 239.98 336 201 c 0
 344.656 178.062 357.146 156.416 373.889 138.506 c 0
 390.631 120.595 411.684 106.579 435 99 c 0
 448.376 94.6522 462.433 92.4924 476.494 92.4924 c 0
 490.828 92.4924 505.166 94.7368 518.793 99.1959 c 0
 545.787 108.029 569.71 125.27 588 147 c 0
 620.556 185.68 634.863 236.58 641.632 286.682 c 0
 648.401 336.785 649.78 387.457 651 438 c 0
  Spiro
    651 438 o
    579 672 o
    408 660 o
    327 459 o
    336 201 o
    435 99 o
    588 147 o
    0 0 z
  EndSpiro
240 528 m 0
 249.937 573.9 263.91 619.202 285.483 660.918 c 0
 307.056 702.634 336.782 740.705 375 768 c 0
 412.725 794.943 458.855 810.429 505.083 810.429 c 0
 513.873 810.429 522.667 809.869 531.407 808.721 c 0
 586.111 801.539 636.879 771.552 672 729 c 0
 704.516 689.603 723.987 640.662 734.07 590.585 c 0
 741.911 551.643 744.603 511.87 744.603 472.099 c 0
 744.603 460.726 744.383 449.353 744 438 c 0
 741.558 365.566 733.563 292.87 713.32 223.28 c 0
 693.077 153.689 657.437 86.2006 600 42 c 0
 563.934 14.2451 519.763 -3.35267 474.318 -5.78458 c 0
 470.699 -5.97828 467.075 -6.07435 463.453 -6.07435 c 0
 421.595 -6.07435 379.841 6.75276 345 30 c 0
 309.305 53.8173 281.091 87.9806 261.577 126.198 c 0
 242.063 164.416 230.869 206.492 225 249 c 0
 220.759 279.718 218.802 310.677 218.802 341.671 c 0
 218.802 404.194 226.764 466.863 240 528 c 0
  Spiro
    240 528 o
    375 768 o
    672 729 o
    744 438 o
    600 42 o
    345 30 o
    225 249 o
    0 0 z
  EndSpiro
EndSplineSet
Validated: 1
EndChar

StartChar: P
Encoding: 80 80 32
Width: 799
VWidth: 0
InSpiro: 1
Flags: HW
LayerCount: 2
Fore
SplineSet
345 627 m 0
 335.634 598.962 331.969 568.455 338.555 539.637 c 0
 341.848 525.228 347.802 511.366 356.528 499.437 c 0
 365.254 487.506 376.77 477.589 390 471 c 0
 412.631 459.73 439.787 458.875 463.784 466.831 c 0
 487.781 474.787 508.651 490.716 525 510 c 0
 540.986 528.856 553.056 551.039 560.156 574.719 c 0
 567.257 598.398 569.234 623.839 564 648 c 0
 558.813 671.941 546.183 694.495 527.287 710.086 c 0
 508.392 725.677 483.437 733.728 459 732 c 0
 431.693 730.07 406.012 716.327 386.7 696.926 c 0
 367.389 677.523 353.674 652.964 345 627 c 0
  Spiro
    345 627 o
    390 471 o
    525 510 o
    564 648 o
    459 732 o
    0 0 z
  EndSpiro
216 0 m 1
 264 729 l 1
 289.901 766.153 328.027 794.628 371 808.929 c 0
 413.973 823.23 461.542 823.277 504.575 809.158 c 0
 547.608 795.039 585.857 766.862 612.326 730.112 c 0
 638.795 693.361 653.377 648.286 654 603 c 0
 654.875 539.378 628.302 475.642 582 432 c 0
 555.559 407.078 522.56 388.738 486.93 381.614 c 0
 451.3 374.489 413.18 379.126 381 396 c 0
 375.833 398.709 370.822 401.716 366 405 c 1
 333 0 l 1
 216 0 l 1
  Spiro
    216 0 v
    264 729 v
    654 603 o
    582 432 o
    381 396 o
    366 405 v
    333 0 v
    0 0 z
  EndSpiro
EndSplineSet
Validated: 33
EndChar

StartChar: Q
Encoding: 81 81 33
Width: 835
VWidth: 0
Flags: HW
LayerCount: 2
Fore
SplineSet
417 198 m 25
 474 249 l 25
 648 75 l 25
 594 30 l 25
 417 198 l 25
576 411 m 0
 576.865 422.822 577.349 434.69 577.349 446.553 c 0
 577.349 469.31 575.568 492.044 571.283 514.376 c 0
 564.763 548.348 552.064 581.56 531 609 c 0
 518.362 625.463 502.746 639.719 484.818 650.176 c 0
 466.89 660.634 446.677 667.211 426 669 c 0
 422.122 669.336 418.232 669.501 414.343 669.501 c 0
 393.943 669.501 373.557 664.952 354.953 656.542 c 0
 332.802 646.53 313.235 631.213 297.116 613.016 c 0
 264.879 576.624 246.304 530.035 234 483 c 0
 222.252 438.092 215.281 391.763 215.281 345.357 c 0
 215.281 342.246 215.313 339.134 215.376 336.023 c 0
 216.384 286.501 226.828 235.739 255 195 c 0
 276.323 164.164 308.425 140.233 345 132 c 0
 354.858 129.781 364.952 128.697 375.052 128.697 c 0
 389.978 128.697 404.918 131.063 419.136 135.627 c 0
 442.976 143.279 464.703 156.908 483 174 c 0
 514.695 203.606 536.12 242.857 550.472 283.785 c 0
 564.823 324.713 572.835 367.744 576 411 c 0
  Spiro
    576 411 o
    531 609 o
    426 669 o
    234 483 o
    255 195 o
    345 132 o
    483 174 o
    0 0 z
  EndSpiro
333 48 m 0
 298.152 54.4549 265.229 70.4205 238.025 93.1351 c 0
 210.821 115.85 189.344 145.054 174 177 c 0
 151.051 224.779 141.546 278.177 140.094 331.161 c 0
 138.643 384.146 144.688 437.216 156 489 c 0
 171.141 558.315 196.221 627.079 241.265 681.896 c 0
 263.786 709.304 291.43 732.758 323.139 748.664 c 0
 354.848 764.57 390.565 772.672 426 771 c 0
 464.401 769.188 502.039 755.849 533.597 733.895 c 0
 565.156 711.942 590.591 681.749 609 648 c 0
 651.776 569.578 658.256 475.739 648 387 c 0
 641.395 329.847 627.552 273.247 603.715 220.884 c 0
 579.878 168.521 545.018 120.157 498 87 c 0
 450.55 53.5386 390.09 37.425 333 48 c 0
  Spiro
    333 48 o
    174 177 o
    156 489 o
    426 771 o
    609 648 o
    648 387 o
    498 87 o
    0 0 z
  EndSpiro
EndSplineSet
Validated: 37
EndChar

StartChar: R
Encoding: 82 82 34
Width: 742
VWidth: 0
InSpiro: 1
Flags: HW
LayerCount: 2
Fore
SplineSet
300 642 m 0
 290.916 612.579 289.961 580.687 297.031 550.718 c 0
 304.101 520.749 320.215 492.272 345 474 c 0
 366.137 458.418 393.496 451.068 419.386 455.46 c 0
 445.275 459.853 468.706 475.972 483 498 c 0
 495.981 518.005 501.668 542.167 501.872 566.014 c 0
 502.076 589.861 497.321 613.651 489 636 c 0
 480.944 657.637 469.223 678.28 452.404 694.097 c 0
 435.584 709.914 413.087 720.216 390 720 c 0
 368.729 719.801 347.949 710.662 332.397 696.149 c 0
 316.845 681.635 306.276 662.326 300 642 c 0
  Spiro
    300 642 o
    345 474 o
    483 498 o
    489 636 o
    390 720 o
    0 0 z
  EndSpiro
201 0 m 1
 228 753 l 1
 279.628 798.626 354.095 816.978 421.009 800.556 c 0
 487.923 784.134 545.448 733.377 570 669 c 0
 593.528 607.307 586.294 534.685 550.925 478.93 c 0
 515.556 423.176 452.861 385.68 387 381 c 0
 377.017 380.291 366.983 380.291 357 381 c 1
 570 0 l 1
 456 0 l 1
 297 309 l 1
 297 0 l 1
 201 0 l 1
  Spiro
    201 0 v
    228 753 v
    570 669 o
    387 381 o
    357 381 v
    570 0 v
    456 0 v
    297 309 v
    297 0 v
    0 0 z
  EndSpiro
EndSplineSet
Validated: 33
EndChar

StartChar: S
Encoding: 83 83 35
Width: 772
VWidth: 0
InSpiro: 1
Flags: HW
LayerCount: 2
Fore
SplineSet
381 402 m 0
 343.42 427.004 309.354 459.349 290.934 500.557 c 0
 272.513 541.765 270.149 589.445 282 633 c 0
 294.517 679.002 321.801 720.586 357.692 751.966 c 0
 393.584 783.346 438.584 805.034 486 810 c 0
 523.557 813.933 563.269 807.035 594.082 785.204 c 0
 609.488 774.289 622.45 759.53 629.637 742.07 c 0
 636.824 724.609 637.882 704.157 630 687 c 0
 624.964 676.039 616.217 666.684 605.266 661.627 c 0
 594.315 656.569 581.411 656.089 570 660 c 0
 562.378 662.612 555.453 667.037 549.429 672.388 c 0
 543.404 677.738 538.244 683.985 533.351 690.387 c 0
 523.566 703.191 514.25 716.828 501 726 c 0
 492.576 731.831 482.736 735.703 472.536 736.674 c 0
 462.336 737.646 451.917 735.722 442.61 731.438 c 0
 433.303 727.154 425.131 720.6 418.397 712.877 c 0
 411.664 705.155 406.311 696.295 402 687 c 0
 388.638 658.192 383.748 625.589 387 594 c 0
 389.819 566.616 399.774 540.108 415.014 517.183 c 0
 430.254 494.257 450.399 474.985 471.789 457.656 c 0
 493.179 440.326 515.879 424.638 536.875 406.833 c 0
 557.87 389.027 577.18 368.809 591 345 c 0
 605.785 319.528 613.882 290.083 613.204 260.639 c 0
 612.526 231.195 603.221 202.214 588 177 c 0
 560.224 130.99 515.05 97.9679 467.768 72.4162 c 0
 444.128 59.6403 419.567 48.4766 394.082 39.9539 c 0
 368.597 31.4311 341.826 25.4261 315 27 c 0
 293.385 28.2682 271.494 35.0878 255.412 49.5866 c 0
 247.372 56.836 240.934 65.9187 237.122 76.0519 c 0
 233.311 86.1851 232.179 97.328 234 108 c 0
 236.487 122.573 244.532 136 255.748 145.631 c 0
 266.965 155.261 281.081 161.136 295.6 163.922 c 0
 324.637 169.495 354.465 163.39 384 162 c 0
 401.887 161.158 420.03 162.087 437.233 167.056 c 0
 454.437 172.024 470.574 181.111 482.963 194.041 c 0
 495.352 206.97 503.802 223.63 506.851 241.275 c 0
 509.901 258.92 507.573 277.344 501 294 c 0
 490.942 319.485 471.438 340.24 449.673 356.881 c 0
 427.907 373.523 403.81 386.823 381 402 c 0
  Spiro
    381 402 o
    282 633 o
    486 810 o
    630 687 o
    570 660 o
    501 726 o
    402 687 o
    387 594 o
    591 345 o
    588 177 o
    315 27 o
    234 108 o
    384 162 o
    501 294 o
    393 474 z
  EndSpiro
EndSplineSet
Validated: 33
EndChar

StartChar: T
Encoding: 84 84 36
Width: 841
VWidth: 0
Flags: HW
LayerCount: 2
Fore
SplineSet
246 0 m 25
 312 690 l 25
 102 696 l 25
 117 816 l 25
 687 813 l 25
 684 681 l 25
 447 681 l 25
 384 0 l 25
 246 0 l 25
EndSplineSet
Validated: 1
EndChar

StartChar: U
Encoding: 85 85 37
Width: 874
VWidth: 0
InSpiro: 1
Flags: HW
LayerCount: 2
Fore
SplineSet
198 588 m 0
 191.068 610.787 183.927 633.624 180.344 657.172 c 0
 176.761 680.719 177.003 705.31 185.02 727.739 c 0
 193.036 750.167 209.414 769.993 231.134 779.77 c 0
 252.853 789.546 279.081 788.389 300 777 c 0
 311.025 770.998 320.577 762.429 328.166 752.431 c 0
 335.756 742.432 341.411 731.045 345.494 719.175 c 0
 353.66 695.435 355.763 670.075 357 645 c 0
 360.156 581.039 364.77 516.861 360 453 c 0
 357.316 417.059 350.126 381.611 341.682 346.572 c 0
 333.239 311.534 323.847 276.4 322.223 240.395 c 0
 320.598 204.39 327.856 166.786 349.634 138.069 c 0
 360.524 123.71 374.844 111.886 391.255 104.443 c 0
 407.667 96.9995 426.088 94.0275 444 96 c 0
 461.63 97.9414 478.648 104.627 493.192 114.778 c 0
 507.736 124.93 519.797 138.444 529.052 153.575 c 0
 547.562 183.835 554.783 219.674 558 255 c 0
 564.452 325.845 562.125 397.299 570 468 c 0
 577.569 535.951 579.973 604.523 591 672 c 0
 594.884 695.766 601.962 719.803 617.282 738.384 c 0
 624.941 747.674 634.618 755.389 645.667 760.175 c 0
 656.715 764.961 669.083 766.725 681 765 c 0
 693.866 763.138 706.042 757.235 715.818 748.666 c 0
 725.594 740.097 732.994 728.997 738 717 c 0
 747.306 694.699 748.579 669.76 746.241 645.709 c 0
 743.903 621.657 738.09 598.084 731.8 574.752 c 0
 719.221 528.088 705.73 481.573 697.604 433.931 c 0
 689.479 386.289 686.015 337.994 680.213 290.014 c 0
 674.412 242.033 665.314 193.854 645 150 c 0
 627.037 111.221 600.29 76.3607 566.501 50.1913 c 0
 532.713 24.0218 492.237 6.51944 450 0 c 0
 393.318 -8.74911 332.918 3.02036 286.06 36.0924 c 0
 262.631 52.6284 242.81 74.2445 228.366 99.0183 c 0
 213.923 123.792 204.936 151.595 201 180 c 0
 191.559 248.138 211.377 316.432 219.825 384.701 c 0
 224.049 418.835 225.177 453.455 221.209 487.62 c 0
 217.24 521.785 208.01 555.094 198 588 c 0
  Spiro
    198 588 o
    300 777 o
    357 645 o
    360 453 o
    444 96 o
    558 255 o
    570 468 o
    591 672 o
    681 765 o
    738 717 o
    645 150 o
    450 0 o
    201 180 o
    0 0 z
  EndSpiro
EndSplineSet
Validated: 33
EndChar

StartChar: V
Encoding: 86 86 38
Width: 730
VWidth: 0
Flags: HW
LayerCount: 2
Fore
SplineSet
186 822 m 25
 294 816 l 25
 387 243 l 25
 501 816 l 25
 627 819 l 25
 429 0 l 25
 330 0 l 25
 186 822 l 25
EndSplineSet
Validated: 1
EndChar

StartChar: W
Encoding: 87 87 39
Width: 892
VWidth: 0
Flags: HW
LayerCount: 2
Fore
SplineSet
99 783 m 25
 192 777 l 25
 285 186 l 25
 408 429 l 25
 501 186 l 25
 636 789 l 25
 756 780 l 25
 582 15 l 25
 483 15 l 25
 399 219 l 25
 315 18 l 25
 201 18 l 25
 99 783 l 25
EndSplineSet
Validated: 1
EndChar

StartChar: X
Encoding: 88 88 40
Width: 691
VWidth: 0
Flags: HW
LayerCount: 2
Fore
SplineSet
135 816 m 25
 222 816 l 25
 321 441 l 25
 438 813 l 25
 546 813 l 25
 411 372 l 25
 534 0 l 25
 441 0 l 25
 330 327 l 25
 207 0 l 25
 102 0 l 25
 240 381 l 25
 135 816 l 25
EndSplineSet
Validated: 1
EndChar

StartChar: Y
Encoding: 89 89 41
Width: 670
VWidth: 0
Flags: HW
LayerCount: 2
Fore
SplineSet
117 810 m 25
 210 807 l 25
 309 486 l 25
 429 813 l 25
 516 813 l 25
 366 378 l 25
 369 0 l 25
 267 0 l 17
 264 393 l 9
 117 810 l 25
EndSplineSet
EndChar

StartChar: Z
Encoding: 90 90 42
Width: 715
VWidth: 0
Flags: HW
LayerCount: 2
Fore
SplineSet
117 810 m 25
 537 807 l 25
 537 717 l 25
 225 99 l 25
 546 105 l 25
 546 18 l 25
 99 12 l 25
 96 108 l 25
 390 714 l 25
 114 714 l 25
 117 810 l 25
EndSplineSet
Validated: 1
EndChar

StartChar: quotedbl
Encoding: 34 34 43
Width: 1024
VWidth: 0
InSpiro: 1
Flags: H
LayerCount: 2
Fore
SplineSet
408 639 m 4
 406.454 664.092 405.856 689.261 406.541 714.391 c 4
 406.884 726.956 407.891 739.56 410.766 751.796 c 4
 413.641 764.033 418.481 775.927 426 786 c 4
 432.115 794.192 440.001 801.116 449.122 805.731 c 4
 458.244 810.347 468.57 812.603 478.777 812.04 c 4
 488.985 811.477 499.008 808.092 507.527 802.442 c 4
 516.048 796.793 523.027 788.933 528 780 c 4
 537.664 762.64 539.528 741.964 538.4 722.127 c 4
 537.272 702.29 533.895 682.657 531 663 c 4
 529.083 649.979 527.228 636.928 524.195 624.121 c 4
 521.163 611.313 516.805 598.649 509.5 587.701 c 4
 502.195 576.754 491.698 567.664 479.202 563.534 c 4
 466.706 559.404 452.517 560.63 441 567 c 4
 428.92 573.682 420.241 585.497 415.342 598.403 c 4
 410.442 611.309 408.849 625.222 408 639 c 4
  Spiro
    408 639 o
    426 786 o
    528 780 o
    531 663 o
    441 567 o
    0 0 z
  EndSpiro
195 639 m 0
 193.454 664.092 192.856 689.261 193.541 714.391 c 0
 193.884 726.956 194.891 739.56 197.766 751.796 c 0
 200.641 764.033 205.481 775.927 213 786 c 0
 219.115 794.192 227.001 801.116 236.122 805.731 c 0
 245.244 810.347 255.57 812.603 265.777 812.04 c 0
 275.985 811.477 286.008 808.092 294.527 802.442 c 0
 303.048 796.793 310.027 788.933 315 780 c 0
 324.664 762.64 326.528 741.964 325.4 722.127 c 0
 324.272 702.29 320.895 682.657 318 663 c 0
 316.083 649.979 314.228 636.928 311.195 624.121 c 0
 308.163 611.313 303.805 598.649 296.5 587.701 c 0
 289.195 576.754 278.698 567.664 266.202 563.534 c 0
 253.706 559.404 239.517 560.63 228 567 c 0
 215.92 573.682 207.241 585.497 202.342 598.403 c 0
 197.442 611.309 195.849 625.222 195 639 c 0
  Spiro
    195 639 o
    213 786 o
    315 780 o
    318 663 o
    228 567 o
    0 0 z
  EndSpiro
EndSplineSet
Validated: 33
EndChar

StartChar: numbersign
Encoding: 35 35 44
Width: 877
VWidth: 0
Flags: HW
LayerCount: 2
Fore
SplineSet
48 264 m 25
 72 378 l 25
 738 363 l 25
 720 252 l 25
 48 264 l 25
72 537 m 25
 96 651 l 25
 762 636 l 25
 744 525 l 25
 72 537 l 25
447 12 m 25
 516 813 l 25
 648 816 l 25
 582 15 l 25
 447 12 l 25
183 18 m 25
 252 819 l 25
 384 822 l 25
 318 21 l 25
 183 18 l 25
EndSplineSet
Validated: 5
EndChar

StartChar: dollar
Encoding: 36 36 45
Width: 877
VWidth: 0
Flags: HW
LayerCount: 2
Fore
SplineSet
369 0 m 25
 381 825 l 25
 504 825 l 25
 486 0 l 25
 369 0 l 25
615 546 m 24
 584.115 579.323 600.36 615.54 591 660 c 17
 561.859 671.895 548.375 695.418 504 696 c 9
 432.63 678.45 377.325 698.214 321 651 c 24
 282.821 618.997 270.891 565.429 300 525 c 24
 347.413 459.148 408.038 457.065 483 426 c 24
 538.84 402.859 586.802 425.979 633 387 c 24
 671.741 354.312 675.583 314.687 675 264 c 24
 674.35 207.395 671.863 164.106 630 126 c 24
 571.355 72.6182 520.153 55.8461 441 51 c 24
 341.14 44.8857 278.016 53.3311 189 99 c 24
 133.817 127.311 115.818 169.231 96 228 c 24
 79.9072 275.724 59.2266 330.411 102 357 c 24
 142.056 381.899 167.577 322.89 207 297 c 24
 246.119 271.311 258.473 239.406 303 225 c 24
 381.564 199.582 437.715 164.08 513 198 c 24
 570.85 224.064 623.051 305.43 576 348 c 24
 459.92 453.024 297.514 362.162 198 483 c 24
 139.152 554.458 203.858 655.369 282 705 c 24
 402.15 781.312 509.715 817.539 642 765 c 24
 727.737 730.948 716.288 628.559 705 537 c 24
 700.684 501.99 638.979 520.128 615 546 c 24
EndSplineSet
Validated: 37
EndChar

StartChar: percent
Encoding: 37 37 46
Width: 811
VWidth: 0
InSpiro: 1
Flags: HW
LayerCount: 2
Fore
SplineSet
513 180 m 0
 494.127 173.429 476.136 163.53 462.084 149.32 c 0
 448.032 135.11 438.417 115.98 438 96 c 0
 437.718 82.4915 441.622 68.9467 448.942 57.5898 c 0
 456.261 46.2329 466.858 37.1238 478.88 30.9575 c 0
 502.925 18.625 531.697 17.805 558 24 c 0
 572.597 27.438 586.714 33.0607 599.466 40.952 c 0
 612.219 48.8432 623.616 59.1128 631.97 71.5674 c 0
 640.324 84.0219 645.506 98.7276 645.892 113.719 c 0
 646.278 128.711 641.736 143.81 633 156 c 0
 626.631 164.887 618.145 172.2 608.571 177.482 c 0
 598.998 182.763 588.378 186.042 577.554 187.585 c 0
 555.906 190.673 533.651 187.19 513 180 c 0
  Spiro
    513 180 o
    438 96 o
    558 24 o
    633 156 o
    0 0 z
  EndSpiro
180 750 m 0
 159.697 746.913 139.811 739.42 123.719 726.66 c 0
 107.628 713.9 95.7764 695.348 93 675 c 0
 91.2652 662.286 93.0418 649.13 97.9612 637.278 c 0
 102.881 625.427 110.864 614.927 120.649 606.625 c 0
 140.219 590.021 166.337 582.277 192 582 c 0
 221.185 581.685 251.114 590.87 272.63 610.592 c 0
 283.388 620.452 291.819 632.959 296.261 646.861 c 0
 300.702 660.762 301.034 675.975 297 690 c 0
 293.693 701.498 287.522 712.125 279.386 720.898 c 0
 271.251 729.671 261.207 736.599 250.31 741.538 c 0
 228.516 751.418 203.657 753.597 180 750 c 0
  Spiro
    180 750 o
    93 675 o
    192 582 o
    297 690 o
    0 0 z
  EndSpiro
174 12 m 25
 462 816 l 25
 582 816 l 25
 306 12 l 25
 174 12 l 25
  Spiro
    174 12 v
    462 816 v
    582 816 v
    306 12 v
    0 0 z
  EndSpiro
EndSplineSet
Validated: 41
EndChar

StartChar: ampersand
Encoding: 38 38 47
Width: 922
VWidth: 0
Flags: HW
LayerCount: 2
Fore
SplineSet
201 678 m 25
 258 744 l 25
 795 51 l 25
 726 0 l 25
 201 678 l 25
306 609 m 24
 277.558 592.044 262.305 636.815 234 654 c 24
 229.527 656.716 218.234 656.368 222 660 c 24
 288.87 724.482 310.241 801.512 402 816 c 24
 493.656 830.472 582.36 807.364 621 723 c 24
 670.131 615.731 651.877 518.065 582 423 c 24
 530.062 352.34 440.342 413.338 363 372 c 24
 298.775 337.673 193.976 297.837 234 237 c 24
 297.039 141.182 398.318 142.222 513 144 c 24
 570.132 144.886 578.88 204.39 621 243 c 17
 720 381 l 9
 745.74 348.24 791 338.361 786 297 c 24
 776.015 214.392 742.973 169.57 687 108 c 24
 645.103 61.9121 606.337 48.4582 546 33 c 24
 461.854 11.4414 407.932 -7.38178 324 15 c 24
 240.274 37.3271 185.798 66.827 141 141 c 24
 105.312 200.089 105.883 258.57 141 318 c 24
 190.177 401.222 250.493 425.915 336 471 c 24
 383.133 495.852 420.904 473.849 471 492 c 24
 504.001 503.957 534.487 511.948 543 546 c 24
 559.52 612.078 569.254 665.803 528 720 c 24
 494.784 763.637 439.051 771.525 390 747 c 24
 333.646 718.822 360.119 641.263 306 609 c 24
EndSplineSet
Validated: 37
EndChar

StartChar: quotesingle
Encoding: 39 39 48
Width: 601
VWidth: 0
InSpiro: 1
Flags: HW
LayerCount: 2
Fore
SplineSet
243 645 m 0
 245.345 678.14 257.876 709.938 274.158 738.897 c 0
 290.44 767.856 312.474 794.769 342 810 c 0
 364.673 821.696 391.93 825.476 416.135 817.415 c 0
 428.238 813.384 439.399 806.516 448.366 797.443 c 0
 457.333 788.371 464.064 777.134 468 765 c 0
 473.403 748.344 473.48 730.2 469.585 713.128 c 0
 465.69 696.056 458.017 680.015 448.598 665.253 c 0
 429.758 635.731 405.486 609.703 378 588 c 0
 362.564 575.812 345.22 565.322 325.958 561.347 c 0
 316.327 559.36 306.302 559.083 296.654 560.984 c 0
 287.005 562.885 277.784 566.99 270 573 c 0
 259.421 581.167 251.698 592.761 247.4 605.416 c 0
 243.101 618.07 242.057 631.669 243 645 c 0
  Spiro
    243 645 o
    342 810 o
    468 765 o
    378 588 o
    270 573 o
    0 0 z
  EndSpiro
EndSplineSet
Validated: 33
EndChar

StartChar: parenleft
Encoding: 40 40 49
Width: 547
VWidth: 0
Flags: HW
LayerCount: 2
Fore
SplineSet
333 819 m 0
 250.117 757.742 183.701 674.111 144 579 c 0
 113.761 506.555 99.0872 427.304 104.311 348.975 c 0
 109.535 270.647 135.157 193.434 180 129 c 0
 217.61 74.9591 268.491 30.1943 327 0 c 8
 355.757 -14.8408 391.032 32.2338 381 63 c 24
 365.983 109.052 312.586 100.439 282 138 c 24
 244.323 184.271 220.432 214.249 210 273 c 24
 197.276 344.654 209.151 387.971 225 459 c 24
 241.045 530.904 250.593 574.396 291 636 c 24
 324.201 686.618 394.459 678.998 408 738 c 24
 417.631 779.961 333 819 333 819 c 0
EndSplineSet
Validated: 41
EndChar

StartChar: parenright
Encoding: 41 41 50
Width: 496
VWidth: 0
Flags: HW
LayerCount: 2
Fore
SplineSet
179.311 819 m 0
 262.194 757.741 328.61 674.111 368.311 579 c 0
 398.551 506.555 413.224 427.305 408 348.976 c 0
 402.776 270.646 377.154 193.434 332.311 129 c 0
 294.701 74.959 243.819 30.1943 185.311 0 c 8
 156.555 -14.8408 121.278 32.2334 131.311 63 c 24
 146.328 109.052 199.726 100.438 230.311 138 c 24
 267.988 184.271 291.879 214.249 302.311 273 c 24
 315.035 344.654 303.16 387.972 287.311 459 c 24
 271.266 530.904 261.718 574.396 221.311 636 c 24
 188.109 686.618 117.853 678.998 104.311 738 c 24
 94.6797 779.961 179.311 819 179.311 819 c 0
EndSplineSet
Validated: 33
EndChar

StartChar: asterisk
Encoding: 42 42 51
Width: 679
VWidth: 0
Flags: HW
LayerCount: 2
Fore
SplineSet
453 792 m 25
 561 789 l 25
 171 414 l 25
 138 513 l 25
 453 792 l 25
168 801 m 25
 531 537 l 25
 498 462 l 25
 108 765 l 25
 168 801 l 25
267 825 m 25
 366 822 l 25
 396 435 l 25
 306 417 l 25
 267 825 l 25
EndSplineSet
Validated: 5
EndChar

StartChar: plus
Encoding: 43 43 52
Width: 673
VWidth: 0
Flags: HW
LayerCount: 2
Fore
SplineSet
117 534 m 25
 519 528 l 25
 525 432 l 25
 111 435 l 25
 117 534 l 25
237 663 m 25
 372 666 l 25
 375 222 l 25
 246 225 l 25
 237 663 l 25
EndSplineSet
Validated: 5
EndChar

StartChar: comma
Encoding: 44 44 53
Width: 574
VWidth: 0
InSpiro: 1
Flags: HW
LayerCount: 2
Fore
SplineSet
315 -63 m 0
 298.824 -68.1494 281.201 -69.0371 264.785 -64.7158 c 0
 248.369 -60.3945 233.374 -50.8926 222.394 -37.9463 c 0
 211.413 -25 204.493 -8.78027 202.062 8.01953 c 0
 199.632 24.8203 201.592 42.126 206.794 58.2842 c 0
 217.199 90.6016 239.75 117.984 266.17 139.308 c 0
 292.589 160.632 323.501 177.479 357 183 c 0
 374.367 185.862 392.605 185.193 409.005 178.8 c 0
 425.404 172.406 439.52 159.933 447 144 c 0
 451.254 134.939 453.4 124.936 453.56 114.927 c 0
 453.719 104.918 451.929 94.9307 448.841 85.4092 c 0
 442.665 66.3662 431.653 49.2773 420 33 c 0
 405.97 13.4033 391.082 -5.65625 374.321 -22.9766 c 0
 357.562 -40.2979 337.966 -55.6885 315 -63 c 0
  Spiro
    315 -63 o
    357 183 o
    447 144 o
    420 33 o
    0 0 z
  EndSpiro
EndSplineSet
Validated: 33
EndChar

StartChar: hyphen
Encoding: 45 45 54
Width: 739
VWidth: 0
Flags: HW
LayerCount: 2
Fore
SplineSet
177 495 m 25
 576 495 l 25
 576 384 l 25
 183 384 l 25
 177 495 l 25
EndSplineSet
Validated: 1
EndChar

StartChar: period
Encoding: 46 46 55
Width: 463
VWidth: 0
InSpiro: 1
Flags: HW
LayerCount: 2
Fore
SplineSet
249 21 m 0
 233.331 28.3569 220.445 41.4713 213.364 57.2668 c 0
 206.284 73.0622 205.067 91.4079 210 108 c 0
 213.98 121.386 221.89 133.578 232.493 142.667 c 0
 243.096 151.756 256.354 157.71 270.191 159.597 c 0
 284.029 161.484 298.397 159.297 311.046 153.379 c 0
 323.695 147.461 334.581 137.832 342 126 c 0
 350.316 112.737 354.208 96.7519 352.919 81.1508 c 0
 351.63 65.5498 345.168 50.4197 334.789 38.7011 c 0
 324.41 26.9826 310.171 18.7407 294.84 15.5774 c 0
 279.508 12.414 263.17 14.3468 249 21 c 0
  Spiro
    249 21 o
    210 108 o
    342 126 o
    0 0 z
  EndSpiro
EndSplineSet
Validated: 33
EndChar

StartChar: slash
Encoding: 47 47 56
Width: 679
VWidth: 0
Flags: HW
LayerCount: 2
Fore
SplineSet
126 0 m 25
 408 816 l 25
 540 816 l 25
 255 0 l 25
 126 0 l 25
EndSplineSet
Validated: 1
EndChar

StartChar: exclam
Encoding: 33 33 57
Width: 610
VWidth: 0
InSpiro: 1
Flags: HW
LayerCount: 2
Fore
SplineSet
309 147 m 0
 286.237 152.07 261.224 148.253 242.032 135.004 c 0
 232.436 128.379 224.413 119.411 219.246 108.957 c 0
 214.08 98.5038 211.844 86.603 213 75 c 0
 214.865 56.2878 225.71 38.972 240.904 27.892 c 0
 256.098 16.812 275.201 11.5325 294 12 c 0
 311.903 12.4452 329.86 18.1474 343.923 29.2358 c 0
 357.986 40.3242 367.684 57.1397 369 75 c 0
 370.252 91.9924 363.887 109.21 352.622 121.993 c 0
 341.357 134.776 325.631 143.296 309 147 c 0
  Spiro
    309 147 o
    213 75 o
    294 12 o
    369 75 o
    0 0 z
  EndSpiro
300 222 m 0
 285.486 221.232 270.815 224.201 257.657 230.374 c 0
 244.499 236.548 232.899 245.844 223.483 256.916 c 0
 204.651 279.06 194.789 307.513 189 336 c 0
 177.266 393.746 175.762 453.048 171.518 511.821 c 0
 167.273 570.594 163.954 631.236 183 687 c 0
 194.129 719.585 213.363 749.801 240.261 771.298 c 0
 267.16 792.795 301.582 805.01 336 804 c 0
 370.477 802.988 404.283 788.635 429.356 764.949 c 0
 454.428 741.263 470.496 708.873 477 675 c 0
 482.826 644.656 481.372 613.279 476.323 582.796 c 0
 471.273 552.313 462.836 522.505 454.241 492.826 c 0
 437.05 433.468 424.371 372.605 402 315 c 0
 393.17 292.264 381.619 270.144 364.533 252.737 c 0
 347.448 235.33 324.357 223.289 300 222 c 0
  Spiro
    300 222 o
    189 336 o
    183 687 o
    336 804 o
    477 675 o
    402 315 o
    0 0 z
  EndSpiro
EndSplineSet
Validated: 41
EndChar

StartChar: bracketleft
Encoding: 91 91 58
Width: 493
VWidth: 0
Flags: HW
LayerCount: 2
Fore
SplineSet
276 819 m 25
 144 819 l 25
 144 0 l 25
 357 0 l 25
 357 81 l 25
 219 81 l 25
 225 750 l 25
 351 747 l 25
 354 822 l 25
 276 819 l 25
EndSplineSet
Validated: 9
EndChar

StartChar: bracketright
Encoding: 93 93 59
Width: 517
VWidth: 0
Flags: HW
LayerCount: 2
Fore
SplineSet
225 819 m 25
 357 819 l 25
 357 0 l 25
 144 0 l 25
 144 81 l 25
 282 81 l 25
 276 750 l 25
 150 747 l 25
 147 822 l 25
 225 819 l 25
EndSplineSet
Validated: 1
EndChar

StartChar: backslash
Encoding: 92 92 60
Width: 622
VWidth: 0
Flags: HW
LayerCount: 2
Fore
SplineSet
192 813 m 25
 303 819 l 25
 453 0 l 25
 339 0 l 25
 192 813 l 25
EndSplineSet
Validated: 1
EndChar

StartChar: asciicircum
Encoding: 94 94 61
Width: 604
VWidth: 0
Flags: HW
LayerCount: 2
Fore
SplineSet
231 624 m 25
 147 627 l 25
 315 816 l 25
 456 630 l 25
 387 633 l 25
 315 723 l 25
 231 624 l 25
EndSplineSet
Validated: 1
EndChar

StartChar: underscore
Encoding: 95 95 62
Width: 784
VWidth: 0
Flags: HW
LayerCount: 2
Fore
SplineSet
162 12 m 25
 159 60 l 25
 615 60 l 25
 612 12 l 25
 162 12 l 25
EndSplineSet
Validated: 1
EndChar

StartChar: grave
Encoding: 96 96 63
Width: 451
VWidth: 0
InSpiro: 1
Flags: HW
LayerCount: 2
Fore
SplineSet
162 660 m 0
 145.981 678.324 130.547 698.325 124.508 721.904 c 0
 121.489 733.693 121.198 746.343 124.928 757.927 c 0
 128.658 769.511 136.538 779.783 147 786 c 0
 156.888 791.876 168.802 794.026 180.225 792.678 c 0
 191.647 791.33 202.506 786.668 212.133 780.375 c 0
 231.389 767.789 246.403 749.779 261 732 c 0
 272.281 718.26 283.394 704.037 290.306 687.658 c 0
 293.762 679.468 296.05 670.723 296.365 661.84 c 0
 296.68 652.957 294.961 643.958 291 636 c 0
 285.166 624.281 274.376 615.203 261.913 611.195 c 0
 249.451 607.187 235.719 608.105 223.328 612.33 c 0
 210.938 616.555 199.785 623.857 189.746 632.259 c 0
 179.706 640.66 170.616 650.144 162 660 c 0
  Spiro
    162 660 o
    147 786 o
    261 732 o
    291 636 o
    0 0 z
  EndSpiro
EndSplineSet
Validated: 33
EndChar

StartChar: a
Encoding: 97 97 64
Width: 493
VWidth: 0
Flags: HW
LayerCount: 2
Fore
SplineSet
329.2 149 m 0
 326.87 167.541 318.68 185.351 305.883 198.97 c 0
 293.087 212.588 275.687 221.864 257.2 224.6 c 0
 253.371 225.166 249.509 225.443 245.646 225.443 c 0
 225.306 225.443 204.983 217.761 189.734 204.23 c 0
 170.779 187.411 159.959 162.307 159.959 137.294 c 0
 159.959 116.67 167.144 96.0469 180.285 80.1494 c 0
 194.001 63.5576 214.206 52.3848 235.601 50 c 0
 238.48 49.6787 241.373 49.5215 244.263 49.5215 c 0
 267.423 49.5215 290.476 59.626 306.254 76.6582 c 0
 321.497 93.1133 329.886 115.556 329.886 137.979 c 0
 329.886 141.662 329.66 145.345 329.2 149 c 0
  Spiro
    329.2 149 o
    257.2 224.6 o
    160 140 o
    235.6 49.9998 o
    0 0 z
  EndSpiro
208.601 363.2 m 24
 187.623 345.219 203.23 305.918 176.2 300.2 c 24
 147.618 294.153 99.3994 318.698 115 343.399 c 24
 159.159 413.318 201.534 473.434 284.2 471.2 c 24
 349.054 469.447 365.189 399.019 381.4 336.2 c 17
 399.4 24.7998 l 9
 398.191 8.15723 366.43 -0.400391 358 14 c 24
 341.329 42.4805 362.855 130.923 356.2 98.5996 c 0
 343.601 37.3994 312.622 14.0781 262.601 10.3994 c 24
 197.762 5.63184 137.554 21.0781 111.4 80.5996 c 24
 84.1299 142.662 103.459 208.015 158.2 248 c 24
 208.91 285.04 327.281 293.965 318.4 231.8 c 0
 316.601 219.2 333.812 270.823 327.4 294.8 c 24
 316.849 334.256 312.396 366.221 277 386.6 c 24
 252.566 400.668 230.007 381.548 208.601 363.2 c 24
EndSplineSet
Validated: 37
EndChar

StartChar: b
Encoding: 98 98 66
Width: 502
VWidth: 0
InSpiro: 1
Flags: HW
LayerCount: 2
Fore
SplineSet
259.2 282.6 m 0
 243.984 285.655 227.743 282.649 214.331 274.84 c 0
 200.918 267.032 190.412 254.764 183.32 240.959 c 0
 176.229 227.155 172.338 211.87 170.438 196.467 c 0
 168.538 181.064 168.504 165.447 170 150 c 0
 172.274 126.52 178.244 102.617 192.564 83.871 c 0
 199.724 74.4978 209.019 66.649 219.802 61.869 c 0
 230.585 57.0891 242.792 55.5068 254.4 57.6 c 0
 263.782 59.2917 272.697 63.326 280.34 69.0238 c 0
 287.983 74.7217 294.357 82.0319 299.413 90.1142 c 0
 309.524 106.279 314.519 125.152 317.4 144 c 0
 321.581 171.35 322.398 199.81 314.502 226.327 c 0
 310.554 239.585 304.09 252.237 294.658 262.357 c 0
 285.226 272.477 272.763 279.877 259.2 282.6 c 0
  Spiro
    259.2 282.6 o
    170 150 o
    254.4 57.6 o
    317.4 144 o
    0 0 z
  EndSpiro
102.737 18.5204 m 1
 126 576 l 1
 183.6 572.4 l 1
 171 275.4 l 1
 182.097 289.191 193.629 302.707 206.648 314.7 c 0
 212.832 320.397 219.442 325.687 226.746 329.852 c 0
 234.051 334.016 242.085 336.989 250.422 338.077 c 0
 265.344 340.025 280.639 335.576 293.4 327.6 c 0
 314.627 314.333 330.072 293.078 339.909 270.06 c 0
 348.591 249.746 352.712 227.72 354.324 205.687 c 0
 355.935 183.655 355.329 161.517 354.215 139.454 c 0
 352.945 114.321 352.294 88.6954 344.4 64.8 c 0
 341.993 57.5145 338.701 50.4699 334.109 44.3231 c 0
 329.516 38.1763 323.594 33.0289 316.852 29.3673 c 0
 309.866 25.5735 302.129 23.3729 294.358 21.6955 c 0
 286.588 20.0181 278.748 18.6741 270.97 17.0323 c 0
 262.194 15.18 253.424 12.9907 244.463 12.5993 c 0
 235.502 12.2079 226.501 14.1492 218.4 18 c 0
 214.173 20.0092 210.134 22.3887 205.973 24.5314 c 0
 201.812 26.6741 197.488 28.4785 193.12 30.1602 c 0
 190.551 31.1493 187.972 32.138 185.554 33.453 c 0
 183.136 34.7679 180.879 36.4469 179.187 38.6176 c 0
 177.494 40.7882 176.423 43.4407 176.166 46.1812 c 0
 175.909 48.9217 176.473 51.6723 177.238 54.3164 c 0
 177.96 56.8095 178.837 59.319 178.785 61.9138 c 0
 178.759 63.2112 178.487 64.5157 177.886 65.666 c 0
 177.286 66.8163 176.35 67.7987 175.2 68.4 c 0
 173.713 69.1772 171.899 69.2746 170.321 68.7057 c 0
 168.743 68.1369 167.431 66.9477 166.543 65.5241 c 0
 165.656 64.1005 165.167 62.4602 164.884 60.8068 c 0
 164.6 59.1533 164.507 57.4741 164.4 55.8 c 0
 164.107 51.2094 163.337 46.6569 162.079 42.2322 c 0
 160.821 37.8076 159.559 33.3658 159 28.8 c 0
 158.555 25.1688 158.421 21.4486 157.2 18 c 0
 156.304 15.4683 154.774 13.1377 152.675 11.4627 c 0
 150.575 9.78765 147.964 8.80018 145.293 8.51731 c 0
 142.622 8.23444 139.915 8.62421 137.326 9.3382 c 0
 134.737 10.0522 132.245 11.0736 129.76 12.0933 c 0
 121.139 15.6317 112.051 18.2065 102.737 18.5204 c 1
 102.737 18.5204 l 1
  Spiro
    102.737 18.5204 v
    126 576 v
    183.6 572.4 v
    171 275.4 v
    206.648 314.7 o
    250.422 338.077 o
    293.4 327.6 o
    339.909 270.06 o
    354.215 139.454 o
    344.4 64.8 o
    316.852 29.3673 o
    270.97 17.0323 o
    218.4 18 o
    193.12 30.1602 o
    177.238 54.3164 o
    175.2 68.4 o
    164.4 55.8 o
    159 28.8 o
    157.2 18 o
    129.76 12.0933 o
    102.737 18.5204 o
    0 0 z
  EndSpiro
EndSplineSet
Validated: 37
EndChar

StartChar: c
Encoding: 99 99 67
Width: 670
VWidth: 0
Flags: HW
LayerCount: 2
Fore
SplineSet
447 348 m 24
 467.488 325.393 422.51 271.089 453 270 c 24
 495.174 268.494 550.426 307.536 531 345 c 24
 497.988 408.665 439.605 444.565 369 432 c 24
 275.447 415.351 209.473 371.302 177 282 c 24
 147.507 200.894 177.828 131.824 237 69 c 24
 287.391 15.498 346.903 16.3503 420 24 c 24
 460.326 28.2207 485.965 56.4726 495 96 c 24
 500.279 119.095 465 138 444 129 c 0
 400.649 110.421 371.804 64.4378 327 84 c 24
 266.916 110.234 241.266 157.247 231 222 c 24
 223.543 269.039 255.427 295.255 288 330 c 24
 310.914 354.442 332.709 362.231 366 366 c 24
 398.155 369.641 425.27 371.978 447 348 c 24
EndSplineSet
Validated: 41
EndChar

StartChar: d
Encoding: 100 100 68
Width: 502
VWidth: 0
Flags: HW
LayerCount: 2
Fore
SplineSet
197.86 282.6 m 0
 213.077 285.655 229.317 282.648 242.729 274.84 c 0
 256.143 267.032 266.648 254.764 273.74 240.959 c 0
 280.832 227.155 284.723 211.87 286.623 196.467 c 0
 288.523 181.064 288.557 165.447 287.061 150 c 0
 284.786 126.52 278.817 102.617 264.497 83.8711 c 0
 257.337 74.498 248.042 66.6494 237.259 61.8691 c 0
 226.476 57.0889 214.269 55.5068 202.661 57.5996 c 0
 193.278 59.292 184.363 63.3262 176.721 69.0234 c 0
 169.077 74.7217 162.704 82.0322 157.648 90.1143 c 0
 147.536 106.278 142.542 125.152 139.661 144 c 0
 135.48 171.35 134.662 199.811 142.559 226.327 c 0
 146.507 239.585 152.971 252.237 162.402 262.357 c 0
 171.835 272.477 184.298 279.877 197.86 282.6 c 0
  Spiro
    197.861 282.6 o
    287.061 150 o
    202.661 57.6 o
    139.661 144 o
    0 0 z
  EndSpiro
342 0 m 1
 351 573 l 1
 294 573 l 1
 286.061 275.4 l 1
 274.964 289.19 263.432 302.707 250.413 314.699 c 0
 244.229 320.396 237.618 325.687 230.314 329.852 c 0
 223.01 334.017 214.976 336.989 206.639 338.077 c 0
 191.717 340.025 176.422 335.576 163.661 327.6 c 0
 142.434 314.333 126.988 293.077 117.151 270.06 c 0
 108.47 249.746 104.349 227.72 102.737 205.688 c 0
 101.125 183.654 101.731 161.518 102.846 139.454 c 0
 104.116 114.321 104.767 88.6953 112.661 64.7998 c 0
 115.067 57.5146 118.36 50.4697 122.952 44.3232 c 0
 127.544 38.1768 133.466 33.0293 140.209 29.3672 c 0
 147.195 25.5732 154.932 23.373 162.702 21.6953 c 0
 170.473 20.0176 178.312 18.6738 186.091 17.0322 c 0
 194.867 15.1797 203.637 12.9902 212.598 12.5996 c 0
 221.559 12.208 230.561 14.1494 238.661 18 c 0
 242.888 20.0088 246.927 22.3887 251.088 24.5312 c 0
 255.248 26.6738 259.573 28.4785 263.94 30.1602 c 0
 266.509 31.1494 269.088 32.1377 271.507 33.4531 c 0
 273.925 34.7676 276.182 36.4473 277.874 38.6172 c 0
 279.566 40.7881 280.638 43.4404 280.895 46.1816 c 0
 281.151 48.9219 280.587 51.6719 279.822 54.3164 c 0
 279.102 56.8096 278.224 59.3193 278.275 61.9141 c 0
 278.302 63.2109 278.573 64.5156 279.174 65.666 c 0
 279.774 66.8164 280.711 67.7988 281.86 68.4004 c 0
 283.348 69.1777 285.162 69.2744 286.74 68.7061 c 0
 288.318 68.1367 289.63 66.9473 290.518 65.5244 c 0
 291.404 64.1006 291.894 62.46 292.177 60.8066 c 0
 292.46 59.1533 292.554 57.4736 292.66 55.7998 c 0
 292.954 51.209 293.724 46.6572 294.981 42.2324 c 0
 296.239 37.8076 297.501 33.3662 298.061 28.7998 c 0
 298.506 25.1689 298.64 21.4482 299.86 18 c 0
 300.757 15.4688 302.287 13.1377 304.386 11.4629 c 0
 306.485 9.78809 309.097 8.7998 311.768 8.51758 c 0
 314.438 8.23438 317.146 8.62402 319.734 9.33789 c 0
 322.323 10.0518 324.816 11.0732 327.301 12.0938 c 0
 335.922 15.6318 345.01 18.2061 354.324 18.5205 c 1
 342 0 l 1
EndSplineSet
Validated: 37
EndChar

StartChar: e
Encoding: 101 101 69
Width: 676
VWidth: 0
Flags: HW
LayerCount: 2
Fore
SplineSet
255 249 m 24
 286.646 203.289 359.3 228.238 396 270 c 24
 420.424 297.792 378.595 353.45 342 348 c 24
 291.16 340.428 225.742 291.261 255 249 c 24
483 132 m 24
 438.451 59.4014 393.982 5.76152 309 0 c 24
 227.321 -5.53711 163.664 33.835 129 108 c 24
 100.007 170.031 141.481 219.389 180 276 c 24
 222.051 337.803 210 378 327 399 c 1
 456 387 411.982 305.489 492 204 c 9
 438.18 202.83 407.804 202.774 354 201 c 24
 301.326 199.264 265.577 219.658 219 195 c 24
 192.415 180.926 183.042 144.132 201 120 c 24
 230.37 80.5332 265.903 62.8828 315 66 c 24
 353.885 68.4688 353.735 117.753 390 132 c 24
 423.759 145.262 501.97 162.914 483 132 c 24
EndSplineSet
Validated: 33
EndChar

StartChar: f
Encoding: 102 102 70
Width: 628
VWidth: 0
Flags: HW
LayerCount: 2
Fore
SplineSet
144 252 m 25
 144 303 l 25
 297 303 l 25
 291 255 l 25
 144 252 l 25
186 0 m 24
 178.986 164.821 186 258.03 186 423 c 24
 186 433.53 182.089 440.223 186 450 c 24
 201.159 487.896 204.243 515.064 234 543 c 24
 264.921 572.028 290.605 589.178 333 588 c 24
 382.758 586.618 424.044 579.473 450 537 c 24
 483.693 481.865 461.826 436.537 465 372 c 24
 465.363 364.609 466.23 355.572 459 354 c 24
 434.964 348.774 406.428 334.722 396 357 c 24
 373.178 405.756 413.638 445.28 393 495 c 24
 383.071 518.92 355.83 517.89 330 516 c 24
 303.908 514.091 287.082 505.816 270 486 c 24
 254.991 468.59 256.134 451.959 255 429 c 24
 246.746 261.856 257.674 166.939 246 0 c 24
 245.429 -8.16992 233.19 0 225 0 c 24
 216.81 0 212.19 0 204 0 c 24
 196.98 0 186.299 -7.01367 186 0 c 24
EndSplineSet
EndChar

StartChar: g
Encoding: 103 103 71
Width: 665
VWidth: 0
Flags: HW
LayerCount: 2
Fore
SplineSet
424.8 366 m 0
 415.287 387.725 401.626 408.495 381.6 421.2 c 0
 371.101 427.861 327.852 432.107 315.472 433.268 c 0
 303.092 434.427 290.469 432.514 278.885 427.994 c 0
 255.719 418.955 237.4 399.89 225.6 378 c 0
 208.78 346.797 203.384 309.831 208.8 274.8 c 0
 212 254.101 219.185 233.937 230.51 216.316 c 0
 241.834 198.697 257.409 183.65 276 174 c 0
 294.811 164.236 316.765 160.241 337.635 163.933 c 0
 358.505 167.624 409.05 179.14 422.4 195.601 c 0
 431.774 207.159 438.244 220.943 441.928 235.362 c 0
 445.612 249.78 446.597 264.805 445.813 279.666 c 0
 444.245 309.389 436.738 338.736 424.8 366 c 0
468 198 m 0
 489.6 106.8 380.601 119.259 312 116.4 c 24
 253.853 113.978 202.137 132.177 180 186 c 24
 146.147 268.309 136.867 342.306 189.6 414 c 24
 238.896 481.021 310.482 472.723 393.6 476.4 c 24
 426.328 477.849 434.592 445.656 460.8 426 c 24
 460.8 426 l 24
 464.544 443.784 457.29 459.015 470.4 471.601 c 24
 484.977 485.594 517.009 503.447 520.8 483.601 c 24
 550.115 330.141 551.273 239.788 544.5 83.7002 c 24
 541.104 5.4248 545.125 -50.7843 495 -111 c 24
 445.75 -170.164 391.878 -188.037 315 -192 c 24
 264.702 -194.593 233.394 -166.897 204 -126 c 24
 174.669 -85.1914 166.47 -49.1397 177 0 c 24
 181.413 20.5928 217.207 15.915 231 0 c 24
 254.791 -27.4512 228.402 -65.2579 255 -90 c 24
 286.183 -119.007 320.688 -136.38 360 -120 c 24
 418.848 -95.4805 448.74 -59.7391 471 0 c 24
 497.651 71.5234 478.702 119.281 477.6 195.601 c 24
 477.513 201.593 473.814 206.147 468 207.601 c 24
 464.367 208.509 464.184 214.114 468 198 c 0
EndSplineSet
EndChar

StartChar: h
Encoding: 104 104 72
Width: 571
VWidth: 0
Flags: HW
LayerCount: 2
Fore
SplineSet
162 0 m 25
 162 627 l 25
 246 627 l 25
 246 231 l 25
 319.71 211.11 383.246 236.127 435 180 c 24
 483.009 127.935 456.641 70.7822 459 0 c 24
 459.233 -7.01562 448.02 0 441 0 c 24
 421.11 0 409.89 0 390 0 c 25
 391.17 53.8203 426.259 95.6701 393 138 c 24
 359.678 180.409 298.733 203.353 258 168 c 24
 208.016 124.617 252.182 63.6383 234 0 c 24
 231.429 -9 219.36 0 210 0 c 24
 191.28 0 180.72 0 162 0 c 25
EndSplineSet
EndChar

StartChar: i
Encoding: 105 105 73
Width: 385
VWidth: 0
InSpiro: 1
Flags: HW
LayerCount: 2
Fore
SplineSet
189 450 m 0
 171.73 449.217 154.899 441.3 143.255 428.522 c 0
 131.611 415.743 125.283 398.273 126 381 c 0
 126.763 362.639 135.52 344.74 149.578 332.905 c 0
 163.637 321.07 182.794 315.501 201 318 c 0
 217.227 320.227 232.496 328.768 242.916 341.405 c 0
 253.335 354.042 258.814 370.642 258 387 c 0
 257.141 404.265 249.252 421.085 236.498 432.753 c 0
 223.744 444.422 206.268 450.783 189 450 c 0
  Spiro
    189 450 o
    126 381 o
    201 318 o
    258 387 o
    0 0 z
  EndSpiro
144 0 m 25
 144 279 l 25
 240 279 l 25
 237 0 l 25
 144 0 l 25
  Spiro
    144 0 v
    144 279 v
    240 279 v
    237 0 v
    0 0 z
  EndSpiro
EndSplineSet
EndChar

StartChar: j
Encoding: 106 106 74
Width: 605
VWidth: 0
Flags: HW
LayerCount: 2
Fore
SplineSet
423 495 m 0
 421.021 495.187 419.033 495.28 417.045 495.28 c 0
 403.117 495.28 389.164 490.717 378.247 482.08 c 0
 365.77 472.21 357.602 456.897 357 441 c 0
 356.667 432.214 358.567 423.36 362.42 415.457 c 0
 366.272 407.554 372.053 400.618 379.047 395.289 c 0
 389.801 387.095 403.347 382.837 416.878 382.837 c 0
 420.946 382.837 425.011 383.222 429 384 c 0
 441.779 386.493 453.82 392.981 462.599 402.596 c 0
 474.973 416.148 477.012 431.791 477.012 439.089 c 0
 477.012 453.117 471.124 466.989 461.314 477.029 c 0
 451.251 487.328 437.335 493.642 423 495 c 0
  Spiro
    423 495 o
    357 441 o
    429 384 o
    477 438 o
    0 0 z
  EndSpiro
369 333 m 24
 405.636 348.5 431.992 340.802 471 333 c 24
 479.112 331.378 473.877 320.273 474 312 c 24
 476.218 163.422 502.615 77.37 477 -69 c 24
 468.14 -119.631 440.471 -158.271 390 -168 c 24
 324.961 -180.538 272.661 -165.915 228 -117 c 24
 186.367 -71.4023 187.038 -21.1451 201 39 c 24
 206.916 64.4844 252.646 72.8728 267 51 c 24
 290.118 15.7725 240.96 -21.7205 264 -57 c 24
 286.69 -91.7451 333.336 -125.019 363 -96 c 24
 412.712 -47.3682 396.747 8.65469 402 78 c 24
 408.546 164.403 404.121 214.065 393 300 c 24
 390.958 315.782 354.344 326.8 369 333 c 24
  Spiro
    369 333 o
    403.027 341.62 o
    435.393 339.907 o
    471 333 o
    475.355 328.68 o
    474.969 320.752 o
    474 312 o
    481.446 179.835 o
    488.1 61.6939 o
    477 -69 o
    461.744 -114.966 o
    432.982 -149.288 o
    390 -168 o
    329.076 -171.227 o
    275.346 -154.721 o
    228 -117 o
    199.41 -69.7048 o
    192.545 -17.9886 o
    201 39 o
    217.526 58.2855 o
    244.851 63.2702 o
    267 51 o
    271.386 15.2195 o
    259.666 -21.1848 o
    264 -57 o
    293.125 -88.9751 o
    329.228 -106.513 o
    363 -96 o
    394.022 -44.739 o
    400.602 12.937 o
    402 78 o
    405.048 154.79 o
    401.724 223.522 o
    393 300 o
    382.629 314.179 o
    368.245 325.205 o
    0 0 z
  EndSpiro
EndSplineSet
EndChar

StartChar: k
Encoding: 107 107 75
Width: 523
VWidth: 0
Flags: HW
LayerCount: 2
Fore
SplineSet
141 0 m 25
 138 519 l 25
 198 516 l 25
 204 261 l 25
 306 387 l 25
 396 390 l 25
 234 210 l 29
 381 0 l 25
 303 0 l 25
 204 147 l 25
 201 0 l 25
 141 0 l 25
EndSplineSet
EndChar

StartChar: l
Encoding: 108 108 76
Width: 403
VWidth: 0
Flags: HW
LayerCount: 2
Fore
SplineSet
168 0 m 25
 168 549 l 25
 258 549 l 25
 258 0 l 25
 168 0 l 25
EndSplineSet
EndChar

StartChar: m
Encoding: 109 109 77
Width: 694
VWidth: 0
Flags: HW
LayerCount: 2
Fore
SplineSet
168 9 m 24
 151.771 126.074 147.354 196.85 174 312 c 24
 182.652 349.391 213.628 372.698 252 372 c 24
 293.885 371.238 313.98 342.599 339 309 c 24
 357.646 283.961 355.167 262.165 357 231 c 0
 360 180 377.747 283.46 399 312 c 24
 419.266 339.213 428.209 375.072 462 372 c 24
 500.732 368.479 523.61 338.184 531 300 c 24
 553.233 185.126 553.236 115.414 534 0 c 24
 530.641 -20.1553 486.745 -8.08693 483 12 c 24
 471.136 75.6348 508.947 112.758 501 177 c 24
 494.437 230.059 491.747 273.742 447 303 c 24
 421.296 319.807 440.035 253.553 423 228 c 24
 401.426 195.64 389.718 155.313 351 159 c 24
 313.204 162.6 312.038 205.139 297 240 c 24
 285.725 266.139 307.32 294.33 285 312 c 24
 266.089 326.972 237.41 317.683 225 297 c 24
 203.794 261.657 213.572 233.213 213 192 c 24
 212.396 148.572 221.288 124.426 222 81 c 24
 222.462 52.8262 232.906 31.5419 216 9 c 24
 204.768 -5.97559 170.57 -9.54297 168 9 c 24
EndSplineSet
EndChar

StartChar: n
Encoding: 110 110 78
Width: 613
VWidth: 0
Flags: HW
LayerCount: 2
Fore
SplineSet
177 21 m 24
 158.556 127.055 157.318 190.654 174 297 c 24
 177.576 319.797 202.332 331.318 225 327 c 24
 241.734 323.812 220.028 283.524 237 285 c 24
 265.953 287.518 268.006 320.003 294 333 c 24
 325.481 348.741 345.924 359.923 381 357 c 24
 420.194 353.733 451.486 350.249 474 318 c 24
 501.089 279.196 489.048 245.231 492 198 c 24
 496.087 132.607 505.596 94.0938 492 30 c 24
 487.823 10.3086 462.575 -15.7188 450 0 c 24
 428.024 27.4697 446.25 54.8946 444 90 c 24
 440.4 146.154 451.384 180.168 435 234 c 24
 425.578 264.959 411.63 286.558 381 297 c 24
 351.45 307.074 330.343 294.066 303 279 c 24
 271.085 261.414 244.915 250.767 234 216 c 24
 211.177 143.305 243.378 94.1339 222 21 c 24
 217.076 4.15527 180.007 3.70998 177 21 c 24
EndSplineSet
EndChar

StartChar: o
Encoding: 111 111 79
Width: 688
VWidth: 0
InSpiro: 1
Flags: HW
LayerCount: 2
Fore
SplineSet
282 99 m 0
 300.837 74.4309 328.214 56.075 358.602 50.1534 c 0
 388.99 44.2319 421.614 51.2784 447 69 c 0
 474.234 88.0122 492.515 118.138 501.18 150.202 c 0
 509.845 182.266 510.054 216.342 504 249 c 0
 498.698 277.6 488.266 305.639 470.681 328.809 c 0
 453.096 351.979 427.595 369.668 399 375 c 0
 383.381 377.912 367.113 377.19 351.778 373.038 c 0
 336.442 368.886 322.082 361.358 309.626 351.496 c 0
 284.712 331.773 267.688 303.263 258 273 c 0
 248.735 244.057 245.682 213.11 249.281 182.934 c 0
 252.88 152.759 263.509 123.117 282 99 c 0
  Spiro
    282 99 o
    447 69 o
    504 249 o
    399 375 o
    258 273 o
    0 0 z
  EndSpiro
327 0 m 0
 293.757 10.8796 264.13 31.771 241.249 58.2265 c 0
 218.367 84.682 201.946 116.466 192 150 c 0
 177.303 199.555 176.368 253.662 192.647 302.72 c 0
 208.925 351.779 244.144 395.177 291 417 c 0
 326.742 433.647 368.171 437.36 406.529 428.236 c 0
 444.887 419.111 479.917 397.655 507 369 c 0
 539.85 334.243 561.309 289.115 568.818 241.883 c 0
 576.326 194.652 569.865 145.033 549 102 c 0
 529.575 61.9376 497.232 27.7958 457.05 8.61913 c 0
 416.869 -10.5575 369.315 -13.8485 327 0 c 0
  Spiro
    192 150 o
    291 417 o
    507 369 o
    549 102 o
    327 0 o
    0 0 z
  EndSpiro
EndSplineSet
EndChar

StartChar: p
Encoding: 112 112 80
Width: 595
VWidth: 0
Flags: HW
LayerCount: 2
Fore
SplineSet
383.559 287.307 m 4
 368.272 301.736 348.005 311.173 327 312 c 4
 326.025 312.038 325.05 312.058 324.075 312.058 c 4
 304.049 312.058 284.185 304.014 269.559 290.307 c 4
 254.187 275.9 244.74 256.121 239.243 235.784 c 4
 233.745 215.447 231.37 194.358 230.559 173.307 c 4
 230.417 169.627 230.333 165.938 230.333 162.249 c 4
 230.333 150.445 231.193 138.644 233.771 127.144 c 4
 237.154 112.051 243.847 97.4648 254.559 86.3066 c 4
 265.789 74.6074 281.261 67.1553 297.381 65.3789 c 4
 300.112 65.0781 302.854 64.9326 305.595 64.9326 c 4
 319.027 64.9326 332.438 68.4326 344.559 74.3066 c 4
 361.702 82.6152 376.461 95.459 388.128 110.52 c 4
 399.795 125.58 408.445 142.955 413.559 161.307 c 4
 417.056 173.856 410.326 202.591 410.326 215.615 c 4
 410.326 225.25 417.884 219.183 415.817 228.595 c 4
 410.956 250.732 400.041 271.749 383.559 287.307 c 4
141 -177 m 4
 150 21 144 -54 180 309 c 4
 186.493 374.474 317.188 368.226 393 333 c 28
 457.541 303.011 480.626 242.076 477 171 c 28
 473.721 106.733 433.371 71.7857 378 39 c 28
 334.698 13.3604 295.398 55.487 249 36 c 28
 226.143 26.3994 232.93 0.296853 228 -24 c 28
 216.484 -80.7559 235.626 -120.657 207 -171 c 28
 194.225 -193.468 139.826 -202.82 141 -177 c 4
  Spiro
    141 -177 o
    147.106 -43.7617 o
    155.903 65.8167 o
    180 309 o
    221.192 352.127 o
    305.619 356.972 o
    393 333 o
    444.23 293.514 o
    471.192 237.863 o
    477 171 o
    462.206 115.548 o
    427.505 73.4749 o
    378 39 o
    335.663 31.1521 o
    293.4 39.7482 o
    249 36 o
    234.5 21.5954 o
    230.554 0.197226 o
    228 -24 o
    223.799 -76.1001 o
    222.603 -123.173 o
    207 -171 o
    183.98 -188.268 o
    154.725 -191.908 o
    0 0 z
  EndSpiro
EndSplineSet
EndChar

StartChar: q
Encoding: 113 113 81
Width: 595
VWidth: 0
Flags: HW
LayerCount: 2
Fore
SplineSet
171.441 281.307 m 0
 186.728 295.736 206.995 305.173 228 306 c 0
 228.975 306.038 229.95 306.058 230.925 306.058 c 0
 250.951 306.058 270.815 298.014 285.441 284.307 c 0
 300.813 269.9 310.26 250.121 315.757 229.784 c 0
 321.255 209.447 323.63 188.358 324.441 167.307 c 0
 324.583 163.627 324.667 159.938 324.667 156.249 c 0
 324.667 144.445 323.807 132.644 321.229 121.144 c 0
 317.846 106.051 311.153 91.4648 300.441 80.3066 c 0
 289.211 68.6074 273.739 61.1553 257.619 59.3789 c 0
 254.888 59.0781 252.146 58.9326 249.405 58.9326 c 0
 235.973 58.9326 222.562 62.4326 210.441 68.3066 c 0
 193.298 76.6152 178.539 89.459 166.872 104.52 c 0
 155.205 119.58 146.555 136.955 141.441 155.307 c 0
 137.944 167.856 144.674 196.591 144.674 209.615 c 0
 144.674 219.25 137.116 213.183 139.183 222.595 c 0
 144.044 244.732 154.959 265.749 171.441 281.307 c 0
474 -78 m 0
 473.809 -73.7842 440.889 -56.7832 423 -75 c 0
 405.021 -93.3086 405.042 -140.862 393 -147 c 0
 359.636 -164.005 367.653 -121.003 366 -102 c 1
 378 27 l 1
 374.342 100.116 401.005 40.7798 375 303 c 0
 368.507 368.474 237.812 362.226 162 327 c 24
 97.459 297.011 74.3737 236.076 78 165 c 24
 81.2793 100.733 121.628 65.7861 177 33 c 24
 220.302 7.36035 259.602 49.487 306 30 c 24
 328.857 20.3994 323.182 -5.50394 327 -30 c 24
 337.309 -96.1475 278.36 -180.22 342 -201 c 24
 408.89 -222.842 475.174 -103.819 474 -78 c 0
EndSplineSet
EndChar

StartChar: r
Encoding: 114 114 82
Width: 451
VWidth: 0
Flags: HW
LayerCount: 2
Fore
SplineSet
132 0 m 24
 119.226 103.35 124.098 163.436 135 267 c 24
 136.325 279.586 149.607 282.436 162 285 c 24
 218.561 296.702 252.243 313.709 309 303 c 24
 327.962 299.422 331.983 270.865 321 255 c 24
 312.115 242.166 297.604 264.422 282 264 c 24
 253.543 263.23 236.237 263.047 210 252 c 24
 190.117 243.628 172.063 237.188 168 216 c 24
 154.558 145.907 168 104.37 168 33 c 24
 168 20.1299 177.487 8.69666 168 0 c 24
 157.65 -9.4873 133.723 -13.9336 132 0 c 24
EndSplineSet
EndChar

StartChar: s
Encoding: 115 115 83
Width: 601
VWidth: 0
Flags: HW
LayerCount: 2
Fore
SplineSet
468 390 m 24
 431.847 435.482 391.086 454.32 333 453 c 24
 275.96 451.704 239.326 428.804 204 384 c 24
 182.942 357.293 187.783 322.751 210 297 c 24
 246.237 254.998 303.122 275.681 336 231 c 24
 357.597 201.65 349.42 166.726 327 138 c 24
 304.918 109.707 272.214 92.1757 240 108 c 24
 190.432 132.35 201.65 190.919 156 222 c 24
 136.73 235.12 103.927 226.785 99 204 c 24
 90.8672 166.384 109.265 142.053 132 111 c 24
 158.991 74.1348 179.766 53.43 222 36 c 24
 257.706 21.2637 288.329 12.392 321 33 c 24
 373.252 65.959 393.518 101.859 417 159 c 24
 430.815 192.617 430.745 221.485 411 252 c 24
 387.552 288.238 339.749 274.717 318 312 c 24
 301.398 340.459 294.837 388.853 327 396 c 24
 371.072 405.794 380.894 337.919 426 336 c 24
 452.656 334.865 484.602 369.114 468 390 c 24
EndSplineSet
EndChar

StartChar: t
Encoding: 116 116 84
Width: 592
VWidth: 0
Flags: HW
LayerCount: 2
Fore
SplineSet
213 12 m 25
 213 240 l 25
 90 240 l 25
 87 327 l 25
 213 327 l 25
 210 438 l 25
 330 435 l 25
 324 330 l 25
 426 330 l 25
 423 228 l 25
 324 228 l 25
 321 0 l 25
 213 12 l 25
EndSplineSet
EndChar

StartChar: u
Encoding: 117 117 85
Width: 595
VWidth: 0
Flags: HW
LayerCount: 2
Fore
SplineSet
156 366 m 17
 161.561 254.476 159.22 193.242 189 105 c 9
 210.236 56.8936 250.45 34.9226 303 33 c 24
 360.005 30.9141 412.864 43.4277 435 96 c 17
 459.699 185.815 446.538 254.996 447 375 c 9
 441.663 401.401 386.034 403.709 378 378 c 24
 349.724 287.517 397.113 226.412 372 135 c 24
 364.227 106.705 332.205 102.151 303 105 c 24
 276.446 107.591 256.447 121.381 249 147 c 24
 225.374 228.272 261.083 285.096 228 363 c 24
 217.015 388.868 160.201 393.789 156 366 c 17
EndSplineSet
EndChar

StartChar: v
Encoding: 118 118 86
Width: 601
VWidth: 0
Flags: HW
LayerCount: 2
Fore
SplineSet
123 342 m 25
 264 0 l 25
 477 342 l 25
 387 342 l 25
 282 144 l 25
 207 348 l 25
 123 342 l 25
EndSplineSet
EndChar

StartChar: w
Encoding: 119 119 87
Width: 673
VWidth: 0
Flags: HW
LayerCount: 2
Fore
SplineSet
105 330 m 25
 204 330 l 25
 240 129 l 25
 333 333 l 25
 438 162 l 25
 486 330 l 25
 558 333 l 25
 444 15 l 25
 342 174 l 25
 240 3 l 25
 105 330 l 25
EndSplineSet
EndChar

StartChar: x
Encoding: 120 120 88
Width: 577
VWidth: 0
Flags: HW
LayerCount: 2
Fore
SplineSet
144 405 m 25
 219 405 l 25
 297 261 l 25
 363 408 l 25
 444 408 l 25
 336 189 l 25
 447 12 l 25
 363 9 l 25
 294 138 l 25
 216 15 l 25
 141 12 l 25
 255 207 l 25
 144 405 l 25
EndSplineSet
EndChar

StartChar: y
Encoding: 121 121 89
Width: 577
VWidth: 0
Flags: HW
LayerCount: 2
Fore
SplineSet
147 267 m 25
 225 261 l 25
 306 72 l 25
 369 273 l 25
 438 273 l 25
 264 -195 l 25
 183 -195 l 25
 267 15 l 25
 147 267 l 25
EndSplineSet
EndChar

StartChar: z
Encoding: 122 122 90
Width: 586
VWidth: 0
Flags: HW
LayerCount: 2
Fore
SplineSet
147 363 m 25
 426 360 l 25
 426 300 l 25
 168 75 l 25
 426 75 l 25
 426 15 l 25
 117 15 l 25
 117 96 l 25
 354 309 l 25
 141 306 l 25
 147 363 l 25
EndSplineSet
EndChar

StartChar: braceleft
Encoding: 123 123 91
Width: 526
VWidth: 0
Flags: HW
LayerCount: 2
Fore
SplineSet
297 819 m 0
 246 792 187.267 750.058 186 681 c 24
 184.453 596.693 291 576.321 291 492 c 24
 291 438.065 234 420 186 402 c 0
 143.727 386.148 286.236 387.131 285 342 c 24
 282.965 267.717 168.41 256.401 180 183 c 24
 194.746 89.6113 258.825 50.1092 339 0 c 0
 411 -45 232.598 105.356 237 189 c 24
 240.985 264.729 354.923 266.194 357 342 c 24
 358.407 393.354 192.992 396.233 243 408 c 0
 294 420 340.08 435.501 339 483 c 24
 337.097 566.737 247.389 588.888 237 672 c 24
 229.319 733.443 351.726 847.972 297 819 c 0
EndSplineSet
EndChar

StartChar: braceright
Encoding: 125 125 92
Width: 508
VWidth: 0
Flags: HW
LayerCount: 2
Fore
SplineSet
240 819 m 0
 291 792 349.732 750.058 351 681 c 24
 352.547 596.693 246 576.321 246 492 c 24
 246 438.065 303 420 351 402 c 0
 393.272 386.147 250.764 387.131 252 342 c 24
 254.035 267.717 368.59 256.401 357 183 c 24
 342.254 89.6113 278.175 50.1094 198 0 c 0
 126 -45 304.402 105.356 300 189 c 24
 296.015 264.729 182.077 266.194 180 342 c 24
 178.593 393.354 344.008 396.233 294 408 c 0
 243 420 196.921 435.501 198 483 c 24
 199.903 566.737 289.611 588.888 300 672 c 24
 307.681 733.443 185.274 847.973 240 819 c 0
EndSplineSet
EndChar

StartChar: bar
Encoding: 124 124 93
Width: 337
VWidth: 0
Flags: HW
LayerCount: 2
Fore
SplineSet
165 -12 m 25
 168 804 l 25
 189 804 l 25
 180 -12 l 25
 165 -12 l 25
EndSplineSet
EndChar

StartChar: asciitilde
Encoding: 126 126 94
Width: 685
VWidth: 0
Flags: HWO
LayerCount: 2
Fore
SplineSet
147 534 m 24
 195.467 576.717 217.514 633.932 282 630 c 24
 343.107 626.273 331.783 518.244 393 519 c 24
 461.016 519.84 536.406 694.595 525 633 c 0
 510 552 483.435 470.398 399 447 c 24
 335.198 429.32 341.928 557.945 276 564 c 24
 200.953 570.893 178.404 491.071 105 474 c 24
 77.1787 467.53 125.571 515.114 147 534 c 24
EndSplineSet
EndChar
